<?xml version="1.0" encoding="UTF-8" standalone="no"?>
<!-- Created with Inkscape (http://www.inkscape.org/) -->

<svg
   xmlns:osb="http://www.openswatchbook.org/uri/2009/osb"
   xmlns:dc="http://purl.org/dc/elements/1.1/"
   xmlns:cc="http://creativecommons.org/ns#"
   xmlns:rdf="http://www.w3.org/1999/02/22-rdf-syntax-ns#"
   xmlns:svg="http://www.w3.org/2000/svg"
   xmlns="http://www.w3.org/2000/svg"
   xmlns:xlink="http://www.w3.org/1999/xlink"
   xmlns:sodipodi="http://sodipodi.sourceforge.net/DTD/sodipodi-0.dtd"
   xmlns:inkscape="http://www.inkscape.org/namespaces/inkscape"
   width="264.58334mm"
   height="396.96701mm"
   viewBox="0 0 264.58333 396.96703"
   version="1.1"
   id="svg998"
   inkscape:version="0.92.3 (2405546, 2018-03-11)"
   sodipodi:docname="LSP_logo_2020_V4.svg">
  <defs
     id="defs992">
    <linearGradient
       id="linearGradient2426"
       inkscape:collect="always">
      <stop
         id="stop2422"
         offset="0"
         style="stop-color:#57b2a5;stop-opacity:1;" />
      <stop
         id="stop2424"
         offset="1"
         style="stop-color:#a7ef36;stop-opacity:1" />
    </linearGradient>
    <linearGradient
       osb:paint="solid"
       id="linearGradient2307">
      <stop
         id="stop2305"
         offset="0"
         style="stop-color:#239db5;stop-opacity:1;" />
    </linearGradient>
    <linearGradient
       inkscape:collect="always"
       xlink:href="#linearGradient2426"
       id="linearGradient835"
       gradientUnits="userSpaceOnUse"
       x1="-38.378731"
       y1="26.670887"
       x2="27.5427"
       y2="26.670887"
       gradientTransform="matrix(2.8098546,0,0,2.8098546,83.510966,83.511098)" />
  </defs>
  <sodipodi:namedview
     id="base"
     pagecolor="#ffffff"
     bordercolor="#666666"
     borderopacity="1.0"
     inkscape:pageopacity="0.0"
     inkscape:pageshadow="2"
     inkscape:zoom="0.24400592"
     inkscape:cx="-692.0731"
     inkscape:cy="900.4368"
     inkscape:document-units="mm"
     inkscape:current-layer="layer1"
     showgrid="false"
     units="mm"
     inkscape:window-width="1920"
     inkscape:window-height="1026"
     inkscape:window-x="0"
     inkscape:window-y="0"
     inkscape:window-maximized="1"
     showguides="true"
     inkscape:guide-bbox="true" />
  <metadata
     id="metadata995">
    <rdf:RDF>
      <cc:Work
         rdf:about="">
        <dc:format>image/svg+xml</dc:format>
        <dc:type
           rdf:resource="http://purl.org/dc/dcmitype/StillImage" />
        <dc:title />
      </cc:Work>
    </rdf:RDF>
  </metadata>
  <g
     inkscape:label="Layer 1"
     inkscape:groupmode="layer"
     id="layer1"
     transform="translate(0,99.967032)">
    <g
       id="g865">
      <g
         id="g1125"
         style="opacity:1;stroke:#000000;stroke-opacity:1"
         transform="matrix(0.98977468,0,0,-0.98977468,48.470607,114.79307)">
        <path
           style="opacity:1;fill:#239db5;fill-opacity:1;fill-rule:evenodd;stroke:none;stroke-width:0.9834491;stroke-miterlimit:4;stroke-dasharray:none;stroke-opacity:1"
           d="m 152.94385,6.130629 a 103.96462,103.96462 0 0 1 7.94743,7.947435 l 7.95801,-7.9579326 A 115.20404,115.20404 0 0 1 193.20264,48.30125 l -10.87086,2.912819 a 103.96462,103.96462 0 0 1 2.90885,10.856452 l 10.87091,-2.912826 a 115.20404,115.20404 0 0 1 1.4e-4,48.706575 l -10.87092,-2.91283 a 103.96462,103.96462 0 0 1 -2.90889,10.85657 l 10.8707,2.91269 a 115.20404,115.20404 0 0 1 -24.35322,42.18126 l -7.95803,-7.95811 a 103.96462,103.96462 0 0 1 -7.94743,7.94743 l 7.95793,7.95801 a 115.20404,115.20404 0 0 1 -42.18112,24.35335 l -2.91282,-10.87086 a 103.96462,103.96462 0 0 1 -10.85645,2.90886 l 2.91282,10.87091 a 115.20404,115.20404 0 0 1 -48.706568,1.3e-4 l 2.912829,-10.87092 a 103.96462,103.96462 0 0 1 -10.856569,-2.90888 l -2.912695,10.87069 A 115.20404,115.20404 0 0 1 6.1199907,168.84935 l 7.9581063,-7.95803 a 103.96462,103.96462 0 0 1 -7.9474288,-7.94743 l -7.9580084,7.95793 A 115.20404,115.20404 0 0 1 -24.327875,124.04229 l 21.8425567,-5.85277 A 92.725202,92.725202 0 1 0 118.18964,-2.485186 l 5.85254,-21.842571 a 115.20404,115.20404 0 0 1 36.85978,22.500358 l -7.95811,7.958028"
           id="Sketch002_w0001-7"
           inkscape:connector-curvature="0" />
        <path
           style="fill:#239db5;fill-opacity:1;fill-rule:evenodd;stroke:none;stroke-width:0.9834491;stroke-miterlimit:4;stroke-dasharray:none;stroke-opacity:1"
           d="m 99.405911,107.35338 24.658879,24.65888 a 63.221728,63.221728 0 0 0 7.94736,-7.9475 l -24.65877,-24.658846 -7.947469,7.947466"
           id="Sketch002_w0002-5"
           inkscape:connector-curvature="0" />
        <path
           style="fill:#239db5;fill-opacity:1;fill-rule:evenodd;stroke:none;stroke-width:3.71697307;stroke-miterlimit:4;stroke-dasharray:none;stroke-opacity:1"
           d="M 472.12695,0.54492188 A 504.44633,504.44633 0 0 0 0,410.14453 c 72.803585,90.25728 145.68703,29.68553 145.54883,86.01758 h 0.006 v 16.44727 h -0.006 C 145.79033,569.14693 72.855095,508.42709 0,598.74805 a 504.44633,504.44633 0 0 0 19.240234,71.80664 c 56.912838,21.87432 94.831476,5.84586 119.658206,-5.16016 22.99383,-10.17607 36.27344,-16.621 49.46484,6.93164 l 0.0117,-0.008 8.19531,14.25976 -0.01,0.006 c 28.3582,48.76335 -65.09154,32.70906 -83.01758,147.30664 a 504.44633,504.44633 0 0 0 52.56641,52.56641 C 280.5512,868.5558 264.69354,775.33125 313.21484,803.32031 l 0.002,-0.004 14.24609,8.22461 -0.004,0.008 c 49.43435,28.07953 -39.85139,60.83942 1.98633,169.21094 A 504.44633,504.44633 0 0 0 401.25195,1000 c 51.55516,-42.07517 53.95969,-78.21902 56.83594,-105.0625 2.11015,-24.32414 2.288,-40.56825 29.26172,-40.47656 v -0.008 l 16.44727,-0.0156 v 0.0137 C 560.19736,854.27848 499.57687,927.17906 589.85547,1000 A 504.44633,504.44633 0 0 0 472.12695,0.54492188 Z M 485.89648,26.648438 A 477.89655,477.89655 0 0 1 619.24219,966.05859 L 549.15234,704.47852 A 207.0885,207.0885 0 0 1 295.52148,450.84766 L 33.939453,380.75781 A 477.89655,477.89655 0 0 1 485.89648,26.648438 Z"
           transform="matrix(0.26458333,0,0,-0.26458333,-47.604204,216.97912)"
           id="Sketch002_w0003-3"
           inkscape:connector-curvature="0" />
        <path
           style="fill:url(#linearGradient835);fill-opacity:1;fill-rule:evenodd;stroke:none;stroke-width:0.9834491;stroke-miterlimit:4;stroke-dasharray:none"
           d="m 157.02505,157.02519 -7.94746,-7.94747 A 92.725202,92.725202 0 0 1 -2.485196,118.18976 l -21.842495,5.85254 a 115.20404,115.20404 0 0 0 22.500282,36.8595 l 7.958028,-7.95783 a 103.96462,103.96462 0 0 0 7.947435,7.94743 l -7.9578905,7.95797 A 115.20404,115.20404 0 0 0 48.30124,193.20276 l 2.912819,-10.87085 a 103.96462,103.96462 0 0 0 10.856452,2.90885 l -2.912823,10.8709 a 115.20404,115.20404 0 0 0 48.706572,-1.3e-4 l -2.91283,-10.87065 A 103.96462,103.96462 0 0 0 115.808,182.332 l 2.9127,10.87074 a 115.20404,115.20404 0 0 0 42.18125,-24.35327 l -7.95811,-7.95803 a 103.96462,103.96462 0 0 0 4.08135,-3.86612"
           id="Sketch003_w0000-5"
           inkscape:connector-curvature="0" />
      </g>
      <path
         id="Выделение"
         d="m 2.8252884e-6,193.36555 c 0,0 21.1625771747116,0 21.1625771747116,0 0,0 0,83.09425 0,83.09425 0,0 46.059729,0 46.059729,0 0,0 0,20.54016 0,20.54016 0,0 -67.2223061747116,0 -67.2223061747116,0 0,0 0,-103.63441 0,-103.63441 z M 84.961528,276.4598 c 0,0 23.029862,0 23.029862,0 0,0 17.42801,0 17.42801,0 3.79681,0 6.94941,0.4108 10.27007,-1.88284 1.27598,-0.88384 2.14738,-1.79568 2.99077,-3.09657 4.70868,-7.27309 -0.76559,-15.85948 -9.21506,-15.87194 0,0 -15.87193,0 -15.87193,0 0,0 -7.78036,0 -7.78036,0 -7.263743,-0.011 -14.823138,-3.67856 -19.354423,-9.33644 -1.664995,-2.07581 -2.981432,-4.40367 -4.027113,-6.8467 -1.195064,-2.79159 -1.820605,-6.30834 -1.826828,-9.33643 0,0 0,-11.82618 0,-11.82618 0.02169,-12.99941 11.483812,-24.87536 24.585934,-24.89715 0,0 51.35037,0 51.35037,0 0,0 0,20.54016 0,20.54016 0,0 -22.71865,0 -22.71865,0 0,0 -16.80557,0 -16.80557,0 -3.89952,0 -7.21395,-0.3828 -10.58129,2.00424 -6.39857,4.53747 -6.14337,13.37287 0.62243,17.45289 1.92953,1.16393 3.71901,1.39113 5.91307,1.39425 0,0 15.24951,0 15.24951,0 0,0 7.46914,0 7.46914,0 8.08535,0.011 15.67898,3.83728 20.57127,10.27005 1.68678,2.21898 2.59553,3.9431 3.57274,6.5355 1.05191,2.80094 1.68367,6.34569 1.68679,9.33644 0,0 0,10.58131 0,10.58131 -0.0217,13.70589 -11.4029,25.49781 -25.20837,25.51957 0,0 -51.350372,0 -51.350372,0 0,0 0,-20.54016 0,-20.54016 z m 95.231602,-83.09425 c 0,0 59.44192,0 59.44192,0 12.66642,0.0184 24.43658,11.57409 24.58596,24.27473 0,0 0,14.31588 0,14.31588 0,9.82502 0.78422,16.61261 -5.85395,24.89716 -4.53129,5.65788 -12.09068,9.32397 -19.35442,9.33643 0,0 -9.64767,0 -9.64767,0 0,0 -28.32048,0 -28.32048,0 0,0 0,30.81021 0,30.81021 0,0 -20.85136,0 -20.85136,0 0,0 0,-103.63441 0,-103.63441 z m 20.85136,51.97282 c 0,0 31.12141,0 31.12141,0 6.43593,-0.007 10.8614,-4.03022 10.82093,-10.58128 0,0 0,-12.13736 0,-12.13736 -0.32383,-1.39426 -0.8745,-2.86941 -1.67122,-4.0458 -2.26563,-3.34866 -5.54893,-4.62154 -9.4609,-4.66822 0,0 -30.81022,0 -30.81022,0 0,0 0,31.43266 0,31.43266 z"
         style="fill:#239db5;fill-opacity:1;stroke:none;stroke-width:0.31121439"
         inkscape:connector-curvature="0" />
    </g>
  </g>
</svg>
