<?xml version="1.0" encoding="UTF-8" standalone="no"?>
<!-- Created with Inkscape (http://www.inkscape.org/) -->

<svg
   xmlns:dc="http://purl.org/dc/elements/1.1/"
   xmlns:cc="http://creativecommons.org/ns#"
   xmlns:rdf="http://www.w3.org/1999/02/22-rdf-syntax-ns#"
   xmlns:svg="http://www.w3.org/2000/svg"
   xmlns="http://www.w3.org/2000/svg"
   xmlns:sodipodi="http://sodipodi.sourceforge.net/DTD/sodipodi-0.dtd"
   xmlns:inkscape="http://www.inkscape.org/namespaces/inkscape"
   width="1000"
   height="51.143002"
   viewBox="0 0 264.58334 13.531586"
   version="1.1"
   id="svg8"
   inkscape:version="0.92.3 (2405546, 2018-03-11)"
   sodipodi:docname="LSP_logo_2020_text_one_line.svg">
  <defs
     id="defs2" />
  <sodipodi:namedview
     id="base"
     pagecolor="#ffffff"
     bordercolor="#666666"
     borderopacity="1.0"
     inkscape:pageopacity="0.0"
     inkscape:pageshadow="2"
     inkscape:zoom="0.29520327"
     inkscape:cx="-75.718239"
     inkscape:cy="107.14581"
     inkscape:document-units="mm"
     inkscape:current-layer="layer1"
     showgrid="false"
     showguides="true"
     inkscape:guide-bbox="true"
     inkscape:window-width="1920"
     inkscape:window-height="1026"
     inkscape:window-x="0"
     inkscape:window-y="0"
     inkscape:window-maximized="1"
     units="px" />
  <metadata
     id="metadata5">
    <rdf:RDF>
      <cc:Work
         rdf:about="">
        <dc:format>image/svg+xml</dc:format>
        <dc:type
           rdf:resource="http://purl.org/dc/dcmitype/StillImage" />
        <dc:title></dc:title>
      </cc:Work>
    </rdf:RDF>
  </metadata>
  <g
     inkscape:label="Layer 1"
     inkscape:groupmode="layer"
     id="layer1"
     transform="translate(0,-283.46841)">
    <g
       id="g1769"
       transform="matrix(1.3589001,0,0,1.3589001,-2.0383501,281.59525)">
      <path
         d="m 1.5,1.3827376 h 1.3465845 v 8.8194614 h 4.8463709 v 1.133265 H 1.5 Z"
         style="font-style:normal;font-weight:normal;font-size:13.65250015px;line-height:0;font-family:sans-serif;letter-spacing:0px;word-spacing:0px;fill:#9da3ca;fill-opacity:1;stroke:none;stroke-width:0.26458332"
         id="path838"
         inkscape:connector-curvature="0" />
      <path
         d="m 12.05,1.3827376 h 1.346585 V 11.335464 H 12.05 Z"
         style="font-style:normal;font-weight:normal;font-size:13.65250015px;line-height:0;font-family:sans-serif;letter-spacing:0px;word-spacing:0px;fill:#9da3ca;fill-opacity:1;stroke:none;stroke-width:0.26458332"
         id="path840"
         inkscape:connector-curvature="0" />
      <path
         d="m 18.3,1.3827376 h 1.813223 l 4.413064,8.3261585 V 1.3827376 h 1.306587 V 11.335464 H 24.019651 L 19.606587,3.009305 v 8.326159 H 18.3 Z"
         style="font-style:normal;font-weight:normal;font-size:13.65250015px;line-height:0;font-family:sans-serif;letter-spacing:0px;word-spacing:0px;fill:#9da3ca;fill-opacity:1;stroke:none;stroke-width:0.26458332"
         id="path842"
         inkscape:connector-curvature="0" />
      <path
         d="m 30.7,1.3827376 h 1.35325 v 5.9313225 q 0,1.5694789 0.579965,2.2626655 0.579965,0.6866464 1.879885,0.6866464 1.293255,0 1.873219,-0.6866464 0.579965,-0.6931866 0.579965,-2.2626655 V 1.3827376 h 1.353251 v 6.0948099 q 0,1.9095327 -0.966608,2.8839175 -0.959941,0.974384 -2.839827,0.974384 -1.886551,0 -2.853159,-0.974384 Q 30.7,9.3870802 30.7,7.4775475 Z"
         style="font-style:normal;font-weight:normal;font-size:13.65250015px;line-height:0;font-family:sans-serif;letter-spacing:0px;word-spacing:0px;fill:#9da3ca;fill-opacity:1;stroke:none;stroke-width:0.26205561"
         id="path844"
         inkscape:connector-curvature="0" />
      <path
         d="m 42.573306,1.3827376 h 1.446578 l 2.473182,3.6997742 2.486515,-3.6997742 H 50.42616 L 47.226355,6.1624459 50.63948,11.335464 H 49.192902 L 46.393073,7.1023885 43.573245,11.335464 H 42.12 l 3.553116,-5.3130096 z"
         style="font-style:normal;font-weight:normal;font-size:13.65250015px;line-height:0;font-family:sans-serif;letter-spacing:0px;word-spacing:0px;fill:#9da3ca;fill-opacity:1;stroke:none;stroke-width:0.26458332"
         id="path846"
         inkscape:connector-curvature="0" />
      <path
         d="M 65.586276,1.8726245 V 3.1375066 Q 64.819656,2.7843669 64.139697,2.6110075 63.459739,2.437648 62.826444,2.437648 q -1.099933,0 -1.699896,0.4109261 -0.593297,0.4109262 -0.593297,1.1685714 0,0.6356514 0.393309,0.9631083 0.399975,0.3210361 1.506575,0.5200784 l 0.813283,0.160518 q 1.506575,0.2760911 2.219865,0.9759498 0.719956,0.693438 0.719956,1.8620093 0,1.3932971 -0.973274,2.1124167 -0.966608,0.719122 -2.839827,0.719122 -0.706623,0 -1.506574,-0.154098 -0.793285,-0.154096 -1.646567,-0.455871 V 9.3848689 q 0.81995,0.4430298 1.606569,0.6677551 0.786619,0.224725 1.546572,0.224725 1.153263,0 1.779892,-0.4366087 0.626628,-0.4366092 0.626628,-1.2456202 0,-0.7062793 -0.453306,-1.1043641 Q 63.879713,7.0926712 62.853109,6.8936288 L 62.033159,6.7395316 Q 60.526584,6.4505991 59.853292,5.8342098 59.18,5.2178205 59.18,4.1198771 q 0,-1.271303 0.92661,-2.0032652 0.933276,-0.7319623 2.56651,-0.7319623 0.699957,0 1.42658,0.1219937 0.726622,0.1219937 1.486576,0.3659812 z"
         style="font-style:normal;font-weight:normal;font-size:13.65250015px;line-height:0;font-family:sans-serif;letter-spacing:0px;word-spacing:0px;fill:#9da3ca;fill-opacity:1;stroke:none;stroke-width:0.25966492"
         id="path848"
         inkscape:connector-curvature="0" />
      <path
         d="m 69.35,1.3827376 h 8.419486 v 1.1332642 h -3.533118 v 8.8194622 h -1.35325 V 2.5160018 H 69.35 Z"
         style="font-style:normal;font-weight:normal;font-size:13.65250015px;line-height:0;font-family:sans-serif;letter-spacing:0px;word-spacing:0px;fill:#9da3ca;fill-opacity:1;stroke:none;stroke-width:0.26458332"
         id="path850"
         inkscape:connector-curvature="0" />
      <path
         d="m 81.4,1.3827376 h 1.353251 v 5.9315277 q 0,1.5695331 0.579964,2.2627437 0.579965,0.686671 1.879885,0.686671 1.293255,0 1.873219,-0.686671 0.579965,-0.6932106 0.579965,-2.2627437 V 1.3827376 h 1.353251 v 6.0950207 q 0,1.9095987 -0.966608,2.8840167 -0.959941,0.97442 -2.839827,0.97442 -1.886551,0 -2.853159,-0.97442 Q 81.4,9.387357 81.4,7.4777583 Z"
         style="font-style:normal;font-weight:normal;font-size:13.65250015px;line-height:0;font-family:sans-serif;letter-spacing:0px;word-spacing:0px;fill:#9da3ca;fill-opacity:1;stroke:none;stroke-width:0.26206014"
         id="path852"
         inkscape:connector-curvature="0" />
      <path
         d="m 94.246585,2.4893367 v 7.7395273 h 1.626567 q 2.05987,0 3.013144,-0.933276 0.959934,-0.9332764 0.959934,-2.9464868 0,-1.999878 -0.959934,-2.9264881 Q 97.933022,2.4893367 95.873152,2.4893367 Z M 92.9,1.3827376 h 2.766498 q 2.893148,0 4.246392,1.206593 1.35325,1.1999268 1.35325,3.7597706 0,2.5731763 -1.35992,3.7797688 -1.359904,1.206594 -4.239722,1.206594 H 92.9 Z"
         style="font-style:normal;font-weight:normal;font-size:13.65250015px;line-height:0;font-family:sans-serif;letter-spacing:0px;word-spacing:0px;fill:#9da3ca;fill-opacity:1;stroke:none;stroke-width:0.26458332"
         id="path854"
         inkscape:connector-curvature="0" />
      <path
         d="m 105.12,1.3827376 h 1.34658 V 11.335464 H 105.12 Z"
         style="font-style:normal;font-weight:normal;font-size:13.65250015px;line-height:0;font-family:sans-serif;letter-spacing:0px;word-spacing:0px;fill:#9da3ca;fill-opacity:1;stroke:none;stroke-width:0.26458332"
         id="path856"
         inkscape:connector-curvature="0" />
      <path
         d="m 114.98305,2.4365325 q -1.46658,0 -2.33319,1.0538018 -0.85995,1.0538017 -0.85995,2.8722522 0,1.812025 0.85995,2.8658267 0.86661,1.0538028 2.33319,1.0538028 1.46658,0 2.31986,-1.0538028 0.85995,-1.0538017 0.85995,-2.8658267 0,-1.8184505 -0.85995,-2.8722522 -0.85328,-1.0538018 -2.31986,-1.0538018 z m 0,-1.0538017 q 2.09321,0 3.34647,1.3558059 1.25325,1.3493802 1.25325,3.6240498 0,2.2682441 -1.25325,3.6240494 -1.25326,1.3493811 -3.34647,1.3493811 -2.09987,0 -3.35979,-1.3493811 Q 110.37,8.6372562 110.37,6.3625865 q 0,-2.2746696 1.25326,-3.6240498 1.25992,-1.3558059 3.35979,-1.3558059 z"
         style="font-style:normal;font-weight:normal;font-size:13.65250015px;line-height:0;font-family:sans-serif;letter-spacing:0px;word-spacing:0px;fill:#9da3ca;fill-opacity:1;stroke:none;stroke-width:0.25976396"
         id="path858"
         inkscape:connector-curvature="0" />
      <path
         d="m 129.3238,2.4893334 v 3.739772 h 1.69323 q 0.93995,0 1.45325,-0.486637 0.5133,-0.486637 0.5133,-1.386582 0,-0.893279 -0.5133,-1.379916 -0.5133,-0.486637 -1.45325,-0.486637 z m -1.34658,-1.106599 h 3.03981 q 1.67324,0 2.52652,0.759954 0.85994,0.753287 0.85994,2.213198 0,1.473243 -0.85994,2.226531 -0.85328,0.753287 -2.52652,0.753287 h -1.69323 v 3.9997566 h -1.34658 z"
         style="font-style:normal;font-weight:normal;font-size:13.65250015px;line-height:0;font-family:sans-serif;letter-spacing:0px;word-spacing:0px;fill:#9da3ca;fill-opacity:1;stroke:none;stroke-width:0.26458332"
         id="path889"
         inkscape:connector-curvature="0" />
      <path
         d="m 137.86818,1.3827344 h 1.34659 v 8.8194626 h 4.84637 v 1.133264 h -6.19296 z"
         style="font-style:normal;font-weight:normal;font-size:13.65250015px;line-height:0;font-family:sans-serif;letter-spacing:0px;word-spacing:0px;fill:#9da3ca;fill-opacity:1;stroke:none;stroke-width:0.26458332"
         id="path891"
         inkscape:connector-curvature="0" />
      <path
         d="m 147.201,1.3827344 h 1.35325 v 5.931323 q 0,1.569478 0.57997,2.262665 0.57996,0.6866486 1.87988,0.6866486 1.29326,0 1.87322,-0.6866486 0.57997,-0.693187 0.57997,-2.262665 v -5.931323 h 1.35325 v 6.09481 q 0,1.909533 -0.96661,2.8839186 -0.95994,0.974385 -2.83983,0.974385 -1.88655,0 -2.85316,-0.974385 Q 147.201,9.3870774 147.201,7.4775444 Z"
         style="font-style:normal;font-weight:normal;font-size:13.65250015px;line-height:0;font-family:sans-serif;letter-spacing:0px;word-spacing:0px;fill:#9da3ca;fill-opacity:1;stroke:none;stroke-width:0.26205561"
         id="path893"
         inkscape:connector-curvature="0" />
      <path
         d="m 165.95555,9.7765294 v -2.574709 h -2.19986 v -1.06584 h 3.53312 v 4.1156826 q -0.77996,0.532922 -1.7199,0.809012 -0.93994,0.269671 -2.00654,0.269671 -2.33319,0 -3.65311,-1.309828 -1.31326,-1.3162496 -1.31326,-3.6598116 0,-2.349985 1.31326,-3.659812 1.31992,-1.316248 3.65311,-1.316248 0.97327,0 1.84655,0.231147 0.87995,0.231145 1.6199,0.680596 v 1.380455 q -0.74662,-0.609969 -1.58657,-0.918163 -0.83995,-0.308196 -1.76656,-0.308196 -1.82655,0 -2.7465,0.982371 -0.91327,0.982371 -0.91327,2.92785 0,1.939058 0.91327,2.921429 0.91995,0.9823706 2.7465,0.9823706 0.71329,0 1.27326,-0.115574 0.55997,-0.121993 1.0066,-0.3724026 z"
         style="font-style:normal;font-weight:normal;font-size:13.65250015px;line-height:0;font-family:sans-serif;letter-spacing:0px;word-spacing:0px;fill:#9da3ca;fill-opacity:1;stroke:none;stroke-width:0.25966492"
         id="path895"
         inkscape:connector-curvature="0" />
      <path
         d="m 171.63,1.3827344 h 1.34659 V 11.335461 H 171.63 Z"
         style="font-style:normal;font-weight:normal;font-size:13.65250015px;line-height:0;font-family:sans-serif;letter-spacing:0px;word-spacing:0px;fill:#9da3ca;fill-opacity:1;stroke:none;stroke-width:0.26458332"
         id="path897"
         inkscape:connector-curvature="0" />
      <path
         d="m 177.49068,1.3827344 h 1.81323 l 4.41305,8.3261589 V 1.3827344 h 1.30659 v 9.9527266 h -1.81322 l -4.41306,-8.3261586 v 8.3261586 h -1.30659 z"
         style="font-style:normal;font-weight:normal;font-size:13.65250015px;line-height:0;font-family:sans-serif;letter-spacing:0px;word-spacing:0px;fill:#9da3ca;fill-opacity:1;stroke:none;stroke-width:0.26458332"
         id="path899"
         inkscape:connector-curvature="0" />
      <path
         d="m 195.60947,1.8666724 v 1.266322 q -0.76662,-0.353542 -1.44658,-0.527099 -0.67996,-0.173556 -1.31325,-0.173556 -1.09993,0 -1.6999,0.411394 -0.5933,0.411394 -0.5933,1.169903 0,0.636375 0.39331,0.964205 0.39998,0.321401 1.50658,0.52067 l 0.81328,0.160701 q 1.50658,0.276405 2.21987,0.977062 0.71996,0.694227 0.71996,1.864129 0,1.394884 -0.97328,2.1148256 -0.96661,0.71994 -2.83983,0.71994 -0.70662,0 -1.50657,-0.154273 -0.79329,-0.154273 -1.64657,-0.45639 V 9.3874734 q 0.81995,0.443534 1.60657,0.6685166 0.78662,0.224981 1.54657,0.224981 1.15327,0 1.77989,-0.4371066 0.62663,-0.437107 0.62663,-1.24704 0,-0.707084 -0.4533,-1.105622 -0.44664,-0.398538 -1.47325,-0.597807 l -0.81995,-0.154272 q -1.50657,-0.289263 -2.17987,-0.906354 -0.67329,-0.617091 -0.67329,-1.716285 0,-1.272751 0.92661,-2.005548 0.93328,-0.732795 2.56651,-0.732795 0.69996,0 1.42658,0.122132 0.72663,0.122133 1.48658,0.366399 z"
         style="font-style:normal;font-weight:normal;font-size:13.65250015px;line-height:0;font-family:sans-serif;letter-spacing:0px;word-spacing:0px;fill:#9da3ca;fill-opacity:1;stroke:none;stroke-width:0.25981274"
         id="path901"
         inkscape:connector-curvature="0" />
    </g>
  </g>
</svg>
