<?xml version="1.0" encoding="UTF-8" standalone="no"?>
<svg
   xmlns:dc="http://purl.org/dc/elements/1.1/"
   xmlns:cc="http://creativecommons.org/ns#"
   xmlns:rdf="http://www.w3.org/1999/02/22-rdf-syntax-ns#"
   xmlns:svg="http://www.w3.org/2000/svg"
   xmlns="http://www.w3.org/2000/svg"
   xmlns:sodipodi="http://sodipodi.sourceforge.net/DTD/sodipodi-0.dtd"
   xmlns:inkscape="http://www.inkscape.org/namespaces/inkscape"
   width="1000"
   height="392.18399"
   viewBox="0 0 3125.0015 1225.5754"
   version="1.1"
   id="svg3"
   sodipodi:docname="LSP_logo_2020_LSP_only.svg"
   inkscape:version="0.92.3 (2405546, 2018-03-11)">
  <metadata
     id="metadata9">
    <rdf:RDF>
      <cc:Work
         rdf:about="">
        <dc:format>image/svg+xml</dc:format>
        <dc:type
           rdf:resource="http://purl.org/dc/dcmitype/StillImage" />
        <dc:title></dc:title>
      </cc:Work>
    </rdf:RDF>
  </metadata>
  <defs
     id="defs7" />
  <sodipodi:namedview
     pagecolor="#ffffff"
     bordercolor="#666666"
     borderopacity="1"
     objecttolerance="10"
     gridtolerance="10"
     guidetolerance="10"
     inkscape:pageopacity="0"
     inkscape:pageshadow="2"
     inkscape:window-width="1920"
     inkscape:window-height="1026"
     id="namedview5"
     showgrid="false"
     units="px"
     inkscape:zoom="0.59040654"
     inkscape:cx="-174.29937"
     inkscape:cy="11.858699"
     inkscape:window-x="0"
     inkscape:window-y="0"
     inkscape:window-maximized="1"
     inkscape:current-layer="svg3" />
  <path
     id="Выделение"
     d="m 0,-3.9073991e-6 c 0,0 250.26767,0 250.26767,0 0,0 0,982.6686339073991 0,982.6686339073991 0,0 544.70022,0 544.70022,0 0,0 0,242.90687 0,242.90687 0,0 -794.96789,0 -794.96789,0 C 0,1225.5755 0,-3.9073991e-6 0,-3.9073991e-6 Z M 1004.7511,982.66863 c 0,0 272.3501,0 272.3501,0 0,0 206.1027,0 206.1027,0 44.9011,0 82.1836,4.85814 121.4536,-22.26646 15.0896,-10.45236 25.3947,-21.23595 35.3686,-36.62005 55.6845,-86.01111 -9.0538,-187.55353 -108.9768,-187.70075 0,0 -187.7008,0 -187.7008,0 0,0 -92.0102,0 -92.0102,0 -85.9007,-0.14721 -175.2978,-43.50241 -228.8844,-110.41221 -19.6902,-24.54831 -35.25835,-52.07775 -47.62452,-80.96895 C 960.69662,511.68696 953.299,470.09836 953.22539,434.288 c 0,0 0,-139.85544 0,-139.85544 C 953.48302,140.70196 1089.0325,0.25762609 1243.9775,-3.9073991e-6 c 0,0 607.2672,0 607.2672,0 0,0 0,242.9068639073991 0,242.9068639073991 0,0 -268.6698,0 -268.6698,0 0,0 -198.7419,0 -198.7419,0 -46.1155,0 -85.3118,-4.52691 -125.1339,23.70182 -75.6691,53.66033 -72.6512,158.14708 7.3609,206.3972 22.8185,13.76473 43.9809,16.45143 69.9277,16.48823 0,0 180.34,0 180.34,0 0,0 88.3298,0 88.3298,0 95.6168,0.14722 185.4188,45.37941 243.2748,121.45343 19.9478,26.2413 30.6946,46.63075 42.2511,77.28854 12.4397,33.12366 19.9109,75.0435 19.9477,110.4122 0,0 0,125.13384 0,125.13384 -0.2576,162.08508 -134.85,301.53578 -298.1128,301.79338 0,0 -607.2672,0 -607.2672,0 0,0 0,-242.90687 0,-242.90687 z M 2130.9556,-3.9073991e-6 c 0,0 702.9577,0 702.9577,0 C 2983.7059,0.22081609 3122.8988,136.87434 3124.6654,287.07174 c 0,0 0,169.29871 0,169.29871 0,116.19044 9.2747,196.46012 -69.2283,294.43255 -53.5868,66.90979 -142.9839,110.26499 -228.8846,110.4122 0,0 -114.0926,0 -114.0926,0 0,0 -334.917,0 -334.917,0 0,0 0,364.3603 0,364.3603 0,0 -246.5873,0 -246.5873,0 0,0 0,-1225.575503907399 0,-1225.575503907399 z M 2377.5429,614.62794 c 0,0 368.0407,0 368.0407,0 76.1107,-0.11041 128.4462,-47.66127 127.9677,-125.13383 0,0 0,-143.53586 0,-143.53586 -3.8276,-16.48822 -10.3419,-33.93334 -19.7637,-47.84529 -26.7935,-39.60118 -65.6217,-54.65404 -111.8844,-55.2061 0,0 -364.3603,0 -364.3603,0 0,0 0,371.72108 0,371.72108 z"
     style="fill:#239db5;fill-opacity:1;stroke:none;stroke-width:3.68040323"
     inkscape:connector-curvature="0" />
</svg>
