<?xml version="1.0" encoding="UTF-8" standalone="no"?>
<svg
   xmlns:dc="http://purl.org/dc/elements/1.1/"
   xmlns:cc="http://creativecommons.org/ns#"
   xmlns:rdf="http://www.w3.org/1999/02/22-rdf-syntax-ns#"
   xmlns:svg="http://www.w3.org/2000/svg"
   xmlns="http://www.w3.org/2000/svg"
   xmlns:sodipodi="http://sodipodi.sourceforge.net/DTD/sodipodi-0.dtd"
   xmlns:inkscape="http://www.inkscape.org/namespaces/inkscape"
   width="300"
   height="55.403004"
   viewBox="0 0 300 55.403004"
   version="1.1"
   xml:space="preserve"
   style="clip-rule:evenodd;fill-rule:evenodd;stroke-linejoin:round;stroke-miterlimit:2"
   id="svg345"
   sodipodi:docname="bou_gray.svg"
   inkscape:version="0.92.3 (2405546, 2018-03-11)"><metadata
   id="metadata351"><rdf:RDF><cc:Work
       rdf:about=""><dc:format>image/svg+xml</dc:format><dc:type
         rdf:resource="http://purl.org/dc/dcmitype/StillImage" /><dc:title></dc:title></cc:Work></rdf:RDF></metadata><defs
   id="defs349" /><sodipodi:namedview
   pagecolor="#ffffff"
   bordercolor="#666666"
   borderopacity="1"
   objecttolerance="10"
   gridtolerance="10"
   guidetolerance="10"
   inkscape:pageopacity="0"
   inkscape:pageshadow="2"
   inkscape:window-width="1920"
   inkscape:window-height="1026"
   id="namedview347"
   showgrid="false"
   inkscape:zoom="1.9578455"
   inkscape:cx="877.64482"
   inkscape:cy="-61.513145"
   inkscape:window-x="0"
   inkscape:window-y="0"
   inkscape:window-maximized="1"
   inkscape:current-layer="svg345"
   fit-margin-top="0"
   fit-margin-left="0"
   fit-margin-right="0"
   fit-margin-bottom="0" />
    <g
   transform="matrix(0.12151918,0,0,0.12151918,-13.937625,236.44617)"
   id="g343"
   style="fill:#8088b3;fill-opacity:1;stroke:none">
        <g
   transform="translate(-2530.8,-2833.85)"
   id="g341"
   style="fill:#8088b3;fill-opacity:1;stroke:none">
            <g
   transform="translate(3212.9,1062.11)"
   id="g4"
   style="fill:#8088b3;fill-opacity:1;stroke:none">
                <path
   d="m 0,112.276 h 41.245 c 21.078,0 33.68,-8.25 33.68,-23.372 0,-14.207 -12.602,-22.684 -33.68,-22.684 H 0 Z M 0,42.389 H 41.245 C 58.431,42.389 68.74,34.37 68.74,20.852 68.74,7.332 58.431,0 41.245,0 H 0 Z m 42.619,-66.448 c 33.225,0 53.848,15.122 53.848,40.098 0,18.101 -10.773,31.621 -28.187,35.745 21.542,3.666 34.372,19.018 34.372,40.557 0,27.495 -22.225,43.994 -58.43,43.994 H -27.04 V -24.059 Z"
   style="fill:#8088b3;fill-opacity:1;fill-rule:nonzero;stroke:none"
   id="path2"
   inkscape:connector-curvature="0" />
            </g>
            <g
   transform="translate(3361.83,1118.7)"
   id="g8"
   style="fill:#8088b3;fill-opacity:1;stroke:none">
                <path
   d="m 0,-0.46 c 0,31.851 26.348,57.056 57.743,57.056 31.391,0 57.052,-25.205 57.052,-57.056 0,-31.848 -25.661,-56.594 -57.052,-56.594 C 26.121,-57.054 0,-32.308 0,-0.46 m 142.522,0 c 0,45.828 -37.121,81.343 -85.011,81.343 -47.885,0 -85.006,-35.515 -85.006,-81.343 0,-46.055 37.121,-80.883 85.006,-80.883 47.89,0 85.011,35.057 85.011,80.883"
   style="fill:#8088b3;fill-opacity:1;fill-rule:nonzero;stroke:none"
   id="path6"
   inkscape:connector-curvature="0" />
            </g>
            <g
   transform="translate(3669.56,1105.64)"
   id="g12"
   style="fill:#8088b3;fill-opacity:1;stroke:none">
                <path
   d="m 0,26.352 c 0,41.93 -26.348,67.593 -69.655,67.593 -43.306,0 -69.886,-25.663 -69.886,-67.593 v -93.945 h 27.035 v 93.945 c 0,27.037 16.727,43.306 43.079,43.306 26.121,0 42.392,-16.041 42.392,-43.306 V -67.593 H 0 Z"
   style="fill:#8088b3;fill-opacity:1;fill-rule:nonzero;stroke:none"
   id="path10"
   inkscape:connector-curvature="0" />
            </g>
            <g
   transform="translate(3820.78,1038.05)"
   id="g16"
   style="fill:#8088b3;fill-opacity:1;stroke:none">
                <path
   d="M 0,160.393 -85.466,45.368 v 115.025 h -27.036 V 0 h 26.58 L 0,115.255 V 0 h 26.58 v 160.393 z"
   style="fill:#8088b3;fill-opacity:1;fill-rule:nonzero;stroke:none"
   id="path14"
   inkscape:connector-curvature="0" />
            </g>
            <g
   transform="translate(3948.41,1174.15)"
   id="g20"
   style="fill:#8088b3;fill-opacity:1;stroke:none">
                <path
   d="M 0,-111.817 V 24.288 h -27.04 v -136.105 h -50.638 v -24.288 H 50.866 v 24.288 z"
   style="fill:#8088b3;fill-opacity:1;fill-rule:nonzero;stroke:none"
   id="path18"
   inkscape:connector-curvature="0" />
            </g>
            <g
   transform="translate(4088.18,1038.05)"
   id="g24"
   style="fill:#8088b3;fill-opacity:1;stroke:none">
                <path
   d="M 0,160.393 H -26.808 V 107.922 L -86.613,0 h 27.267 L -13.518,78.133 31.391,0 H 58.89 L 0,107.005 Z"
   style="fill:#8088b3;fill-opacity:1;fill-rule:nonzero;stroke:none"
   id="path22"
   inkscape:connector-curvature="0" />
            </g>
            <g
   transform="translate(4277.22,1182.86)"
   id="g28"
   style="fill:#8088b3;fill-opacity:1;stroke:none">
                <path
   d="m 0,-129.459 -11.228,23.829 c -17.414,-10.539 -34.828,-14.892 -46.971,-14.892 -15.811,0 -26.124,5.957 -26.124,16.726 0,35.057 86.613,16.269 86.385,74.01 0,28.642 -25.206,46.285 -60.493,46.285 -25.205,0 -49.032,-10.311 -65.53,-25.435 l 11.683,-23.371 c 16.499,15.124 37.121,23.371 54.307,23.371 18.788,0 30.016,-7.102 30.016,-19.475 0,-35.745 -86.612,-15.81 -86.612,-72.866 0,-27.495 23.599,-44.681 58.43,-44.681 20.85,0 41.245,6.645 56.137,16.499"
   style="fill:#8088b3;fill-opacity:1;fill-rule:nonzero;stroke:none"
   id="path26"
   inkscape:connector-curvature="0" />
            </g>
            <g
   transform="translate(4325.11,1118.7)"
   id="g32"
   style="fill:#8088b3;fill-opacity:1;stroke:none">
                <path
   d="m 0,-0.46 c 0,31.851 26.348,57.056 57.743,57.056 31.391,0 57.052,-25.205 57.052,-57.056 0,-31.848 -25.661,-56.594 -57.052,-56.594 C 26.121,-57.054 0,-32.308 0,-0.46 m 142.522,0 c 0,45.828 -37.121,81.343 -85.01,81.343 -47.89,0 -85.007,-35.515 -85.007,-81.343 0,-46.055 37.117,-80.883 85.007,-80.883 47.889,0 85.01,35.057 85.01,80.883"
   style="fill:#8088b3;fill-opacity:1;fill-rule:nonzero;stroke:none"
   id="path30"
   inkscape:connector-curvature="0" />
            </g>
            <g
   transform="translate(4632.83,1105.64)"
   id="g36"
   style="fill:#8088b3;fill-opacity:1;stroke:none">
                <path
   d="m 0,26.352 c 0,41.93 -26.348,67.593 -69.655,67.593 -43.306,0 -69.887,-25.663 -69.887,-67.593 v -93.945 h 27.036 v 93.945 c 0,27.037 16.727,43.306 43.079,43.306 26.12,0 42.391,-16.041 42.391,-43.306 V -67.593 H 0 Z"
   style="fill:#8088b3;fill-opacity:1;fill-rule:nonzero;stroke:none"
   id="path34"
   inkscape:connector-curvature="0" />
            </g>
            <g
   transform="translate(4736.63,1110.68)"
   id="g40"
   style="fill:#8088b3;fill-opacity:1;stroke:none">
                <path
   d="m 0,15.123 c 24.746,0 38.955,-10.541 38.955,-32.308 0,-21.08 -14.209,-31.161 -38.955,-31.161 H -38.036 V 15.123 Z M 7.332,39.182 C 5.042,39.411 2.521,39.411 0,39.411 H -38.036 V 87.758 H -65.072 V -72.635 H 0 c 41.017,0 64.616,19.935 64.616,54.763 0,25.662 -11.915,43.764 -33.225,52.013 L 67.365,87.758 H 36.661 Z"
   style="fill:#8088b3;fill-opacity:1;fill-rule:nonzero;stroke:none"
   id="path38"
   inkscape:connector-curvature="0" />
            </g>
            <g
   transform="translate(4969.2,1174.84)"
   id="g44"
   style="fill:#8088b3;fill-opacity:1;stroke:none">
                <path
   d="m 0,-112.733 -15.812,19.705 c -11.687,-12.602 -28.414,-20.392 -44.68,-20.392 -32.079,0 -57.284,24.746 -57.284,56.366 0,31.621 25.205,56.597 57.284,56.597 16.039,0 32.537,-7.332 44.68,-19.018 l 16.04,17.871 c -16.267,16.039 -39.411,26.35 -62.095,26.35 -46.974,0 -83.404,-35.514 -83.404,-81.57 0,-45.598 36.889,-80.655 84.319,-80.655 22.684,0 45.369,9.394 60.952,24.746"
   style="fill:#8088b3;fill-opacity:1;fill-rule:nonzero;stroke:none"
   id="path42"
   inkscape:connector-curvature="0" />
            </g>
            <g
   transform="translate(5023.96,1174.15)"
   id="g48"
   style="fill:#8088b3;fill-opacity:1;stroke:none">
                <path
   d="m 0,-111.817 v 43.307 h 78.366 v 24.286 H 0 V 0 H 90.281 V 24.288 H -27.035 V -136.105 H 87.528 v 24.288 z"
   style="fill:#8088b3;fill-opacity:1;fill-rule:nonzero;stroke:none"
   id="path46"
   inkscape:connector-curvature="0" />
            </g>
            <g
   transform="translate(2951.48,957.069)"
   id="g52"
   style="fill:#8088b3;fill-opacity:1;stroke:none">
                <path
   d="m 0,296.468 c -2.555,0 -5.048,-1.3 -6.459,-3.649 -2.142,-3.564 -0.99,-8.19 2.574,-10.331 10.043,-6.037 19.371,-13.333 27.726,-21.69 C 79.976,204.664 79.976,113.33 23.843,57.196 -1.708,31.648 -35.645,16.721 -71.717,15.165 c -4.153,-0.179 -7.375,-3.693 -7.195,-7.845 0.178,-4.155 3.631,-7.32 7.845,-7.199 39.845,1.72 77.332,18.208 105.555,46.43 30.036,30.036 46.577,69.97 46.577,112.448 0,42.474 -16.541,82.408 -46.577,112.444 -9.222,9.225 -19.523,17.282 -30.618,23.949 -1.213,0.729 -2.55,1.076 -3.87,1.076"
   style="fill:#8088b3;fill-opacity:1;fill-rule:nonzero;stroke:none"
   id="path50"
   inkscape:connector-curvature="0" />
            </g>
            <g
   transform="translate(2643.31,883.438)"
   id="g60"
   style="fill:#8088b3;fill-opacity:1;stroke:none">
                <g
   id="g58"
   style="opacity:0.6;fill:#8088b3;fill-opacity:1;stroke:none">
                    <g
   transform="translate(187.873,76.3257)"
   id="g56"
   style="fill:#8088b3;fill-opacity:1;stroke:none">
                        <path
   d="m 0,309.321 c -0.694,0 -1.4,-0.097 -2.101,-0.3 -25.556,-7.416 -49.072,-21.34 -68.003,-40.272 -62.002,-62.004 -62.002,-162.889 0,-224.893 C -48.441,22.193 -21.233,7.334 8.579,0.888 12.64,0 16.648,2.59 17.528,6.654 c 0.879,4.064 -1.703,8.069 -5.767,8.949 -26.979,5.834 -51.605,19.284 -71.219,38.899 -56.132,56.134 -56.132,147.467 0,203.602 17.142,17.141 38.427,29.747 61.553,36.455 3.992,1.158 6.29,5.337 5.132,9.328 -0.955,3.293 -3.963,5.434 -7.227,5.434"
   style="fill:#8088b3;fill-opacity:1;fill-rule:nonzero;stroke:none"
   id="path54"
   inkscape:connector-curvature="0" />
                    </g>
                </g>
            </g>
            <g
   transform="translate(2873.33,1179.35)"
   id="g64"
   style="fill:#8088b3;fill-opacity:1;stroke:none">
                <path
   d="m 0,130.392 c -49.99,0 -99.218,-19.526 -136.584,-56.893 -18.175,-18.173 -32.32,-39.337 -42.046,-62.9 -1.586,-3.844 0.244,-8.246 4.088,-9.831 3.834,-1.591 8.244,0.244 9.83,4.084 8.965,21.723 22.01,41.237 38.774,58.002 55.563,55.564 139.589,68.361 209.085,31.839 3.68,-1.933 8.232,-0.515 10.166,3.161 1.935,3.681 0.519,8.231 -3.161,10.165 C 61.526,123.064 30.617,130.392 0,130.392"
   style="fill:#8088b3;fill-opacity:1;fill-rule:nonzero;stroke:none"
   id="path62"
   inkscape:connector-curvature="0" />
            </g>
            <g
   transform="translate(2983.69,1189.8)"
   id="g68"
   style="fill:#8088b3;fill-opacity:1;stroke:none">
                <path
   d="m 0,83.579 c -2.31,0 -4.589,-1.059 -6.065,-3.061 C -8.532,77.171 -7.819,72.46 -4.473,69.993 2.719,64.688 9.597,58.769 15.968,52.399 29.837,38.528 41.229,22.666 49.826,5.257 51.667,1.526 56.178,0 59.91,1.84 63.637,3.681 65.168,8.195 63.327,11.921 54.001,30.809 41.648,48.012 26.613,63.044 19.711,69.946 12.258,76.362 4.461,82.109 3.117,83.102 1.551,83.579 0,83.579"
   style="fill:#8088b3;fill-opacity:1;fill-rule:nonzero;stroke:none"
   id="path66"
   inkscape:connector-curvature="0" />
            </g>
            <g
   transform="translate(2643.31,883.438)"
   id="g76"
   style="fill:#8088b3;fill-opacity:1;stroke:none">
                <g
   id="g74"
   style="opacity:0.7;fill:#8088b3;fill-opacity:1;stroke:none">
                    <g
   transform="translate(406.19,20.4233)"
   id="g72"
   style="fill:#8088b3;fill-opacity:1;stroke:none">
                        <path
   d="m 0,279.821 c -0.804,0 -1.623,-0.132 -2.427,-0.406 -3.935,-1.341 -6.039,-5.616 -4.7,-9.551 22.108,-64.912 5.741,-135.338 -42.714,-183.794 -69.548,-69.549 -182.713,-69.543 -252.267,0 -32.713,32.718 -51.254,76.198 -52.207,122.437 -0.085,4.102 -3.437,7.372 -7.523,7.372 -0.053,0 -0.105,0 -0.159,-0.003 -4.157,-0.085 -7.456,-3.523 -7.371,-7.68 1.034,-50.142 21.14,-97.295 56.613,-132.771 75.421,-75.425 198.139,-75.422 273.559,0 52.544,52.543 70.293,128.906 46.323,199.291 -1.068,3.132 -3.994,5.105 -7.127,5.105"
   style="fill:#8088b3;fill-opacity:1;fill-rule:nonzero;stroke:none"
   id="path70"
   inkscape:connector-curvature="0" />
                    </g>
                </g>
            </g>
            <g
   transform="translate(2763.61,879.53)"
   id="g80"
   style="fill:#8088b3;fill-opacity:1;stroke:none">
                <path
   d="m 0,52.899 c -2.605,0 -5.139,-1.353 -6.531,-3.773 -2.075,-3.602 -0.835,-8.204 2.767,-10.28 C 51.048,7.289 117.238,0 177.842,18.861 c 3.97,1.235 6.187,5.455 4.952,9.425 -1.237,3.967 -5.461,6.187 -9.425,4.949 C 116.757,15.62 54.934,22.419 3.749,51.896 2.566,52.576 1.273,52.899 0,52.899"
   style="fill:#8088b3;fill-opacity:1;fill-rule:nonzero;stroke:none"
   id="path78"
   inkscape:connector-curvature="0" />
            </g>
            <g
   transform="translate(2680.38,931.135)"
   id="g84"
   style="fill:#8088b3;fill-opacity:1;stroke:none">
                <path
   d="m 0,86.038 c -1.229,0 -2.476,-0.3 -3.629,-0.935 C -7.27,83.094 -8.593,78.513 -6.584,74.872 3.733,56.17 16.691,38.961 31.932,23.723 39.574,16.08 47.794,8.94 56.365,2.497 59.688,0 64.407,0.671 66.906,3.994 69.404,7.317 68.733,12.037 65.41,14.536 57.403,20.553 49.722,27.225 42.578,34.368 28.337,48.607 16.232,64.683 6.599,82.148 5.227,84.632 2.654,86.038 0,86.038"
   style="fill:#8088b3;fill-opacity:1;fill-rule:nonzero;stroke:none"
   id="path82"
   inkscape:connector-curvature="0" />
            </g>
            <g
   transform="translate(2643.31,883.438)"
   id="g92"
   style="fill:#8088b3;fill-opacity:1;stroke:none">
                <g
   id="g90"
   style="opacity:0.5;fill:#8088b3;fill-opacity:1;stroke:none">
                    <g
   transform="translate(230.614,142.969)"
   id="g88"
   style="fill:#8088b3;fill-opacity:1;stroke:none">
                        <path
   d="m 0,317.611 c -60.07,0 -118.666,-23.799 -161.608,-66.744 -64.303,-64.303 -84.259,-160.513 -50.838,-245.106 1.529,-3.867 5.905,-5.761 9.767,-4.235 3.867,1.529 5.764,5.902 4.236,9.769 -31.215,79.01 -12.578,168.867 47.48,228.927 47.631,47.633 115.893,70.04 182.579,59.96 4.131,-0.632 7.949,2.208 8.569,6.316 0.622,4.111 -2.205,7.949 -6.316,8.57 -11.279,1.705 -22.6,2.543 -33.869,2.543"
   style="fill:#8088b3;fill-opacity:1;fill-rule:nonzero;stroke:none"
   id="path86"
   inkscape:connector-curvature="0" />
                    </g>
                </g>
            </g>
            <g
   transform="translate(2945.12,1244.96)"
   id="g96"
   style="fill:#8088b3;fill-opacity:1;stroke:none">
                <path
   d="m 0,87.199 c -3.129,0 -6.052,-1.967 -7.122,-5.093 -1.347,-3.932 0.75,-8.213 4.683,-9.56 30.812,-10.551 58.203,-27.669 81.41,-50.877 5.661,-5.66 11.047,-11.68 16.006,-17.89 2.592,-3.25 7.33,-3.779 10.581,-1.188 3.248,2.596 3.778,7.331 1.185,10.58 C 101.435,19.82 95.673,26.263 89.616,32.315 64.772,57.16 35.441,75.489 2.439,86.79 1.631,87.067 0.809,87.199 0,87.199"
   style="fill:#8088b3;fill-opacity:1;fill-rule:nonzero;stroke:none"
   id="path94"
   inkscape:connector-curvature="0" />
            </g>
            <g
   transform="translate(2643.31,883.438)"
   id="g104"
   style="fill:#8088b3;fill-opacity:1;stroke:none">
                <g
   id="g102"
   style="opacity:0.6;fill:#8088b3;fill-opacity:1;stroke:none">
                    <g
   transform="translate(444.654,68.4802)"
   id="g100"
   style="fill:#8088b3;fill-opacity:1;stroke:none">
                        <path
   d="m 0,223.001 c -0.578,0 -1.165,-0.068 -1.751,-0.209 -4.045,-0.964 -6.542,-5.022 -5.577,-9.069 17.304,-72.607 -3.835,-147.427 -56.546,-200.138 -2.941,-2.94 -2.941,-7.704 0,-10.645 C -60.936,0 -56.167,0 -53.229,2.94 3.21,59.377 25.844,139.48 7.318,217.217 6.493,220.672 3.405,223.001 0,223.001"
   style="fill:#8088b3;fill-opacity:1;fill-rule:nonzero;stroke:none"
   id="path98"
   inkscape:connector-curvature="0" />
                    </g>
                </g>
            </g>
            <g
   transform="matrix(0,-1,-1,0,2873.63,1043.29)"
   id="g108"
   style="fill:#8088b3;fill-opacity:1;stroke:none">
                <path
   d="m -71.489,-71.489 c -39.482,0 -71.491,32.007 -71.491,71.49 0,39.482 32.009,71.488 71.491,71.488 39.483,0 71.49,-32.006 71.49,-71.488 0,-39.483 -32.007,-71.49 -71.49,-71.49"
   style="fill:#8088b3;fill-opacity:1;fill-rule:nonzero;stroke:none"
   id="path106"
   inkscape:connector-curvature="0" />
            </g>
            <g
   transform="translate(2643.31,883.438)"
   id="g335"
   style="fill:#8088b3;fill-opacity:1;stroke:none">
                <clipPath
   id="_clip1">
                    <path
   d="m 158.828,231.343 c 0,39.482 32.008,71.488 71.49,71.488 39.483,0 71.49,-32.006 71.49,-71.488 0,-39.483 -32.007,-71.49 -71.49,-71.49 -39.482,0 -71.49,32.007 -71.49,71.49 z"
   id="path110"
   inkscape:connector-curvature="0"
   style="clip-rule:nonzero" />
                </clipPath>
                <g
   clip-path="url(#_clip1)"
   id="g333"
   style="fill:#8088b3;fill-opacity:1;stroke:none">
                    <g
   transform="translate(158.829,302.832)"
   id="g115"
   style="fill:#8088b3;fill-opacity:1;stroke:none">
                        <path
   d="M 0,-30.201 52.31,0 H 0 Z"
   style="fill:#8088b3;fill-opacity:1;fill-rule:nonzero;stroke:none"
   id="path113"
   inkscape:connector-curvature="0" />
                    </g>
                    <g
   transform="matrix(0.866023,0.500005,0.500005,-0.866023,171.024,257.32)"
   id="g119"
   style="fill:#8088b3;fill-opacity:1;stroke:none">
                        <path
   d="m -4.464,-16.658 66.634,-10e-4 -4.673,-2.698 H -2.906 Z"
   style="fill:#8088b3;fill-opacity:1;fill-rule:nonzero;stroke:none"
   id="path117"
   inkscape:connector-curvature="0" />
                    </g>
                    <g
   transform="matrix(0.866029,0.499995,0.499995,-0.866029,172.164,253.064)"
   id="g123"
   style="fill:#8088b3;fill-opacity:1;stroke:none">
                        <path
   d="M -4.881,-18.216 H 67.984 L 63.31,-20.914 H -3.323 Z"
   style="fill:#8088b3;fill-opacity:1;fill-rule:nonzero;stroke:none"
   id="path121"
   inkscape:connector-curvature="0" />
                    </g>
                    <g
   transform="matrix(0.866025,0.500001,0.500001,-0.866025,173.304,248.808)"
   id="g127"
   style="fill:#8088b3;fill-opacity:1;stroke:none">
                        <path
   d="M -5.298,-19.774 H 73.797 L 69.124,-22.472 -3.74,-22.473 Z"
   style="fill:#8088b3;fill-opacity:1;fill-rule:nonzero;stroke:none"
   id="path125"
   inkscape:connector-curvature="0" />
                    </g>
                    <g
   transform="matrix(0.866025,0.500001,0.500001,-0.866025,174.445,244.552)"
   id="g131"
   style="fill:#8088b3;fill-opacity:1;stroke:none">
                        <path
   d="m -5.716,-21.332 h 85.328 l -4.674,-2.699 -79.096,10e-4 z"
   style="fill:#8088b3;fill-opacity:1;fill-rule:nonzero;stroke:none"
   id="path129"
   inkscape:connector-curvature="0" />
                    </g>
                    <g
   transform="matrix(0.866027,0.499998,0.499998,-0.866027,175.585,240.296)"
   id="g135"
   style="fill:#8088b3;fill-opacity:1;stroke:none">
                        <path
   d="m -6.133,-22.889 91.558,-0.001 -4.673,-2.697 H -4.576 Z"
   style="fill:#8088b3;fill-opacity:1;fill-rule:nonzero;stroke:none"
   id="path133"
   inkscape:connector-curvature="0" />
                    </g>
                    <g
   transform="matrix(0.866024,0.500003,0.500003,-0.866024,176.726,236.04)"
   id="g139"
   style="fill:#8088b3;fill-opacity:1;stroke:none">
                        <path
   d="m -6.551,-24.448 h 97.79 l -4.673,-2.698 H -4.993 Z"
   style="fill:#8088b3;fill-opacity:1;fill-rule:nonzero;stroke:none"
   id="path137"
   inkscape:connector-curvature="0" />
                    </g>
                    <g
   transform="matrix(0.866025,0.5,0.5,-0.866025,177.866,231.785)"
   id="g143"
   style="fill:#8088b3;fill-opacity:1;stroke:none">
                        <path
   d="m -6.968,-26.005 h 104.02 l -4.673,-2.698 h -97.79 z"
   style="fill:#8088b3;fill-opacity:1;fill-rule:nonzero;stroke:none"
   id="path141"
   inkscape:connector-curvature="0" />
                    </g>
                    <g
   transform="matrix(0.866025,0.5,0.5,-0.866025,179.006,227.528)"
   id="g147"
   style="fill:#8088b3;fill-opacity:1;stroke:none">
                        <path
   d="m -7.385,-27.563 h 110.251 l -4.673,-2.699 H -5.827 Z"
   style="fill:#8088b3;fill-opacity:1;fill-rule:nonzero;stroke:none"
   id="path145"
   inkscape:connector-curvature="0" />
                    </g>
                    <g
   transform="matrix(0.866027,0.499998,0.499998,-0.866027,180.146,223.273)"
   id="g151"
   style="fill:#8088b3;fill-opacity:1;stroke:none">
                        <path
   d="M -7.803,-29.121 H 108.68 l -4.673,-2.697 H -6.245 Z"
   style="fill:#8088b3;fill-opacity:1;fill-rule:nonzero;stroke:none"
   id="path149"
   inkscape:connector-curvature="0" />
                    </g>
                    <g
   transform="matrix(0.866025,0.500002,0.500002,-0.866025,181.287,219.016)"
   id="g155"
   style="fill:#8088b3;fill-opacity:1;stroke:none">
                        <path
   d="m -8.22,-30.678 h 122.713 l -4.673,-2.699 H -6.662 Z"
   style="fill:#8088b3;fill-opacity:1;fill-rule:nonzero;stroke:none"
   id="path153"
   inkscape:connector-curvature="0" />
                    </g>
                    <g
   transform="matrix(0.866024,0.500002,0.500002,-0.866024,182.428,214.76)"
   id="g159"
   style="fill:#8088b3;fill-opacity:1;stroke:none">
                        <path
   d="m -8.638,-32.237 h 128.946 l -4.674,-2.698 -122.714,0.001 z"
   style="fill:#8088b3;fill-opacity:1;fill-rule:nonzero;stroke:none"
   id="path157"
   inkscape:connector-curvature="0" />
                    </g>
                    <g
   transform="matrix(0.866026,0.5,0.5,-0.866026,183.568,210.505)"
   id="g163"
   style="fill:#8088b3;fill-opacity:1;stroke:none">
                        <path
   d="m -9.055,-33.794 h 135.176 l -4.673,-2.698 H -7.498 Z"
   style="fill:#8088b3;fill-opacity:1;fill-rule:nonzero;stroke:none"
   id="path161"
   inkscape:connector-curvature="0" />
                    </g>
                    <g
   transform="matrix(0.866024,0.500003,0.500003,-0.866024,184.708,206.249)"
   id="g167"
   style="fill:#8088b3;fill-opacity:1;stroke:none">
                        <path
   d="M -9.473,-35.352 H 131.935 L 127.262,-38.05 -7.915,-38.051 Z"
   style="fill:#8088b3;fill-opacity:1;fill-rule:nonzero;stroke:none"
   id="path165"
   inkscape:connector-curvature="0" />
                    </g>
                    <g
   transform="matrix(0.866027,0.499998,0.499998,-0.866027,185.848,201.993)"
   id="g171"
   style="fill:#8088b3;fill-opacity:1;stroke:none">
                        <path
   d="m -9.89,-36.91 h 147.639 l -4.674,-2.698 -141.407,10e-4 z"
   style="fill:#8088b3;fill-opacity:1;fill-rule:nonzero;stroke:none"
   id="path169"
   inkscape:connector-curvature="0" />
                    </g>
                    <g
   transform="translate(158.829,302.832)"
   id="g175"
   style="fill:#8088b3;fill-opacity:1;stroke:none">
                        <path
   d="M 0,-76.935 131.904,-0.78 131.454,0 h -3.595 L 0,-73.819 Z"
   style="fill:#8088b3;fill-opacity:1;fill-rule:nonzero;stroke:none"
   id="path173"
   inkscape:connector-curvature="0" />
                    </g>
                    <g
   transform="matrix(0.866024,0.500002,0.500002,-0.866024,187.573,194.778)"
   id="g179"
   style="fill:#8088b3;fill-opacity:1;stroke:none">
                        <path
   d="m -10.891,-38.624 h 153.867 v -2.698 l -152.31,0.001 z"
   style="fill:#8088b3;fill-opacity:1;fill-rule:nonzero;stroke:none"
   id="path177"
   inkscape:connector-curvature="0" />
                    </g>
                    <g
   transform="matrix(0.866026,0.5,0.5,-0.866026,187.858,191.377)"
   id="g183"
   style="fill:#8088b3;fill-opacity:1;stroke:none">
                        <path
   d="m -10.996,-39.013 h 155.427 l -0.002,-2.698 H -9.438 Z"
   style="fill:#8088b3;fill-opacity:1;fill-rule:nonzero;stroke:none"
   id="path181"
   inkscape:connector-curvature="0" />
                    </g>
                    <g
   transform="matrix(0.866025,0.5,0.5,-0.866025,188.143,187.976)"
   id="g187"
   style="fill:#8088b3;fill-opacity:1;stroke:none">
                        <path
   d="M -11.1,-39.402 H 145.884 V -42.1 L -9.542,-42.101 Z"
   style="fill:#8088b3;fill-opacity:1;fill-rule:nonzero;stroke:none"
   id="path185"
   inkscape:connector-curvature="0" />
                    </g>
                    <g
   transform="matrix(0.866025,0.500001,0.500001,-0.866025,188.428,184.576)"
   id="g191"
   style="fill:#8088b3;fill-opacity:1;stroke:none">
                        <path
   d="M -11.204,-39.792 H 147.337 V -42.49 H -9.647 Z"
   style="fill:#8088b3;fill-opacity:1;fill-rule:nonzero;stroke:none"
   id="path189"
   inkscape:connector-curvature="0" />
                    </g>
                    <g
   transform="matrix(0.866024,0.500002,0.500002,-0.866024,188.713,181.175)"
   id="g195"
   style="fill:#8088b3;fill-opacity:1;stroke:none">
                        <path
   d="m -11.309,-40.181 h 160.1 L 148.79,-42.879 -9.751,-42.88 Z"
   style="fill:#8088b3;fill-opacity:1;fill-rule:nonzero;stroke:none"
   id="path193"
   inkscape:connector-curvature="0" />
                    </g>
                    <g
   transform="matrix(0.866027,0.499998,0.499998,-0.866027,188.998,177.775)"
   id="g199"
   style="fill:#8088b3;fill-opacity:1;stroke:none">
                        <path
   d="m -11.413,-40.571 h 161.657 v -2.698 l -160.1,10e-4 z"
   style="fill:#8088b3;fill-opacity:1;fill-rule:nonzero;stroke:none"
   id="path197"
   inkscape:connector-curvature="0" />
                    </g>
                    <g
   transform="matrix(0.866026,0.499999,0.499999,-0.866026,189.283,174.374)"
   id="g203"
   style="fill:#8088b3;fill-opacity:1;stroke:none">
                        <path
   d="m -11.517,-40.96 h 163.214 v -2.698 L -9.959,-43.659 Z"
   style="fill:#8088b3;fill-opacity:1;fill-rule:nonzero;stroke:none"
   id="path201"
   inkscape:connector-curvature="0" />
                    </g>
                    <g
   transform="matrix(0.866026,0.499999,0.499999,-0.866026,189.568,170.973)"
   id="g207"
   style="fill:#8088b3;fill-opacity:1;stroke:none">
                        <path
   d="M -11.622,-41.35 H 153.15 l 0.001,-2.698 -163.215,0.001 z"
   style="fill:#8088b3;fill-opacity:1;fill-rule:nonzero;stroke:none"
   id="path205"
   inkscape:connector-curvature="0" />
                    </g>
                    <g
   transform="translate(158.829,283.359)"
   id="g211"
   style="fill:#8088b3;fill-opacity:1;stroke:none">
                        <path
   d="m 0,-85.502 142.979,82.549 v 2.464 L 142.697,0 0,-82.387 Z"
   style="fill:#8088b3;fill-opacity:1;fill-rule:nonzero;stroke:none"
   id="path209"
   inkscape:connector-curvature="0" />
                    </g>
                    <g
   transform="matrix(0.866025,0.5,0.5,-0.866025,189.823,164.735)"
   id="g215"
   style="fill:#8088b3;fill-opacity:1;stroke:none">
                        <path
   d="m -11.838,-41.483 h 165.097 l 1.558,-2.699 H -10.28 Z"
   style="fill:#8088b3;fill-opacity:1;fill-rule:nonzero;stroke:none"
   id="path213"
   inkscape:connector-curvature="0" />
                    </g>
                    <g
   transform="matrix(0.866025,0.5,0.5,-0.866025,189.823,161.619)"
   id="g219"
   style="fill:#8088b3;fill-opacity:1;stroke:none">
                        <path
   d="m -11.838,-41.483 h 165.097 l 1.558,-2.699 -165.098,0.001 z"
   style="fill:#8088b3;fill-opacity:1;fill-rule:nonzero;stroke:none"
   id="path217"
   inkscape:connector-curvature="0" />
                    </g>
                    <g
   transform="matrix(0.866025,0.5,0.5,-0.866025,189.823,158.503)"
   id="g223"
   style="fill:#8088b3;fill-opacity:1;stroke:none">
                        <path
   d="m -11.838,-41.483 h 165.097 l 1.558,-2.699 H -10.28 Z"
   style="fill:#8088b3;fill-opacity:1;fill-rule:nonzero;stroke:none"
   id="path221"
   inkscape:connector-curvature="0" />
                    </g>
                    <g
   transform="matrix(0.866025,0.5,0.5,-0.866025,189.823,155.388)"
   id="g227"
   style="fill:#8088b3;fill-opacity:1;stroke:none">
                        <path
   d="m -11.838,-41.483 h 165.097 l 1.558,-2.699 -165.098,0.001 z"
   style="fill:#8088b3;fill-opacity:1;fill-rule:nonzero;stroke:none"
   id="path225"
   inkscape:connector-curvature="0" />
                    </g>
                    <g
   transform="matrix(0.866025,0.5,0.5,-0.866025,189.823,152.273)"
   id="g231"
   style="fill:#8088b3;fill-opacity:1;stroke:none">
                        <path
   d="m -11.838,-41.483 h 165.097 l 1.558,-2.699 -165.098,0.001 z"
   style="fill:#8088b3;fill-opacity:1;fill-rule:nonzero;stroke:none"
   id="path229"
   inkscape:connector-curvature="0" />
                    </g>
                    <g
   transform="translate(158.829,264.339)"
   id="g235"
   style="fill:#8088b3;fill-opacity:1;stroke:none">
                        <path
   d="m 0,-84.524 0.282,-0.489 142.697,82.386 V 0.489 L 0,-82.06 Z"
   style="fill:#8088b3;fill-opacity:1;fill-rule:nonzero;stroke:none"
   id="path233"
   inkscape:connector-curvature="0" />
                    </g>
                    <g
   transform="matrix(0.499926,-0.866068,-0.866068,-0.499926,160.126,261.134)"
   id="g239"
   style="fill:#8088b3;fill-opacity:1;stroke:none">
                        <path
   d="m 70.344,41.777 h 2.698 l -0.015,-163.215 -2.698,-1.557 z"
   style="fill:#8088b3;fill-opacity:1;fill-rule:nonzero;stroke:none"
   id="path237"
   inkscape:connector-curvature="0" />
                    </g>
                    <g
   transform="matrix(0.499926,-0.866068,-0.866068,-0.499926,161.475,258.018)"
   id="g243"
   style="fill:#8088b3;fill-opacity:1;stroke:none">
                        <path
   d="m 69.669,41.388 h 2.698 l -0.014,-161.657 -2.698,-1.557 z"
   style="fill:#8088b3;fill-opacity:1;fill-rule:nonzero;stroke:none"
   id="path241"
   inkscape:connector-curvature="0" />
                    </g>
                    <g
   transform="matrix(0.499926,-0.866068,-0.866068,-0.499926,162.825,254.903)"
   id="g247"
   style="fill:#8088b3;fill-opacity:1;stroke:none">
                        <path
   d="m 68.994,40.999 h 2.699 l -0.014,-160.1 -2.698,-1.557 z"
   style="fill:#8088b3;fill-opacity:1;fill-rule:nonzero;stroke:none"
   id="path245"
   inkscape:connector-curvature="0" />
                    </g>
                    <g
   transform="matrix(0.499926,-0.866068,-0.866068,-0.499926,164.173,251.787)"
   id="g251"
   style="fill:#8088b3;fill-opacity:1;stroke:none">
                        <path
   d="m 68.32,40.609 h 2.698 l -0.013,-158.542 -2.699,-1.557 z"
   style="fill:#8088b3;fill-opacity:1;fill-rule:nonzero;stroke:none"
   id="path249"
   inkscape:connector-curvature="0" />
                    </g>
                    <g
   transform="matrix(0.499926,-0.866068,-0.866068,-0.499926,165.523,248.672)"
   id="g255"
   style="fill:#8088b3;fill-opacity:1;stroke:none">
                        <path
   d="m 67.645,40.22 h 2.699 l -0.014,-156.984 -2.698,-1.558 z"
   style="fill:#8088b3;fill-opacity:1;fill-rule:nonzero;stroke:none"
   id="path253"
   inkscape:connector-curvature="0" />
                    </g>
                    <g
   transform="matrix(0.499926,-0.866068,-0.866068,-0.499926,166.872,245.556)"
   id="g259"
   style="fill:#8088b3;fill-opacity:1;stroke:none">
                        <path
   d="m 66.971,39.83 h 2.698 l -0.013,-155.426 -2.699,-1.558 z"
   style="fill:#8088b3;fill-opacity:1;fill-rule:nonzero;stroke:none"
   id="path257"
   inkscape:connector-curvature="0" />
                    </g>
                    <g
   transform="matrix(0.499926,-0.866068,-0.866068,-0.499926,168.221,242.44)"
   id="g263"
   style="fill:#8088b3;fill-opacity:1;stroke:none">
                        <path
   d="m 66.296,39.441 h 2.699 l -0.013,-153.868 -2.699,-1.558 z"
   style="fill:#8088b3;fill-opacity:1;fill-rule:nonzero;stroke:none"
   id="path261"
   inkscape:connector-curvature="0" />
                    </g>
                    <g
   transform="matrix(0.499926,-0.866068,-0.866068,-0.499926,169.57,239.325)"
   id="g267"
   style="fill:#8088b3;fill-opacity:1;stroke:none">
                        <path
   d="m 65.622,39.052 h 2.698 l -0.013,-152.311 -2.699,-1.558 z"
   style="fill:#8088b3;fill-opacity:1;fill-rule:nonzero;stroke:none"
   id="path265"
   inkscape:connector-curvature="0" />
                    </g>
                    <g
   transform="translate(169.903,236.007)"
   id="g271"
   style="fill:#8088b3;fill-opacity:1;stroke:none">
                        <path
   d="m 0,-75.375 0.45,-0.78 h 3.595 l 127.86,73.819 V 0.78 Z"
   style="fill:#8088b3;fill-opacity:1;fill-rule:nonzero;stroke:none"
   id="path269"
   inkscape:connector-curvature="0" />
                    </g>
                    <g
   transform="matrix(0.866026,0.5,0.5,-0.866026,205.642,135.531)"
   id="g275"
   style="fill:#8088b3;fill-opacity:1;stroke:none">
                        <path
   d="m -10.613,-34.212 h 141.408 l 1.558,-2.697 -147.639,-10e-4 z"
   style="fill:#8088b3;fill-opacity:1;fill-rule:nonzero;stroke:none"
   id="path273"
   inkscape:connector-curvature="0" />
                    </g>
                    <g
   transform="matrix(0.866026,0.5,0.5,-0.866026,209.898,136.671)"
   id="g279"
   style="fill:#8088b3;fill-opacity:1;stroke:none">
                        <path
   d="m -10.196,-32.654 h 135.177 l 1.558,-2.698 H -14.869 Z"
   style="fill:#8088b3;fill-opacity:1;fill-rule:nonzero;stroke:none"
   id="path277"
   inkscape:connector-curvature="0" />
                    </g>
                    <g
   transform="matrix(0.866024,0.500002,0.500002,-0.866024,214.154,137.811)"
   id="g283"
   style="fill:#8088b3;fill-opacity:1;stroke:none">
                        <path
   d="m -9.778,-31.096 h 128.946 l 1.557,-2.698 H -14.451 Z"
   style="fill:#8088b3;fill-opacity:1;fill-rule:nonzero;stroke:none"
   id="path281"
   inkscape:connector-curvature="0" />
                    </g>
                    <g
   transform="matrix(0.866027,0.499998,0.499998,-0.866027,218.41,138.952)"
   id="g287"
   style="fill:#8088b3;fill-opacity:1;stroke:none">
                        <path
   d="m -9.361,-29.538 h 122.715 l 1.558,-2.699 -128.946,0.001 z"
   style="fill:#8088b3;fill-opacity:1;fill-rule:nonzero;stroke:none"
   id="path285"
   inkscape:connector-curvature="0" />
                    </g>
                    <g
   transform="matrix(0.866027,0.499998,0.499998,-0.866027,222.666,140.092)"
   id="g291"
   style="fill:#8088b3;fill-opacity:1;stroke:none">
                        <path
   d="m -8.943,-27.98 h 116.482 l 1.558,-2.699 -122.713,10e-4 z"
   style="fill:#8088b3;fill-opacity:1;fill-rule:nonzero;stroke:none"
   id="path289"
   inkscape:connector-curvature="0" />
                    </g>
                    <g
   transform="matrix(0.866025,0.5,0.5,-0.866025,226.922,141.233)"
   id="g295"
   style="fill:#8088b3;fill-opacity:1;stroke:none">
                        <path
   d="m -8.526,-26.423 h 110.252 l 1.558,-2.697 -116.483,-10e-4 z"
   style="fill:#8088b3;fill-opacity:1;fill-rule:nonzero;stroke:none"
   id="path293"
   inkscape:connector-curvature="0" />
                    </g>
                    <g
   transform="matrix(0.866028,0.499996,0.499996,-0.866028,231.178,142.373)"
   id="g299"
   style="fill:#8088b3;fill-opacity:1;stroke:none">
                        <path
   d="m -8.108,-24.865 h 104.02 l 1.558,-2.698 H -12.781 Z"
   style="fill:#8088b3;fill-opacity:1;fill-rule:nonzero;stroke:none"
   id="path297"
   inkscape:connector-curvature="0" />
                    </g>
                    <g
   transform="matrix(0.866024,0.500003,0.500003,-0.866024,235.434,143.513)"
   id="g303"
   style="fill:#8088b3;fill-opacity:1;stroke:none">
                        <path
   d="m -7.691,-23.307 h 97.79 l 1.557,-2.698 h -104.02 z"
   style="fill:#8088b3;fill-opacity:1;fill-rule:nonzero;stroke:none"
   id="path301"
   inkscape:connector-curvature="0" />
                    </g>
                    <g
   transform="matrix(0.866027,0.499998,0.499998,-0.866027,239.69,144.654)"
   id="g307"
   style="fill:#8088b3;fill-opacity:1;stroke:none">
                        <path
   d="m -7.274,-21.749 h 91.559 l 1.558,-2.699 -97.79,0.001 z"
   style="fill:#8088b3;fill-opacity:1;fill-rule:nonzero;stroke:none"
   id="path305"
   inkscape:connector-curvature="0" />
                    </g>
                    <g
   transform="matrix(0.866025,0.500001,0.500001,-0.866025,243.946,145.794)"
   id="g311"
   style="fill:#8088b3;fill-opacity:1;stroke:none">
                        <path
   d="m -6.856,-20.192 h 85.328 l 1.557,-2.697 -91.558,-0.001 z"
   style="fill:#8088b3;fill-opacity:1;fill-rule:nonzero;stroke:none"
   id="path309"
   inkscape:connector-curvature="0" />
                    </g>
                    <g
   transform="matrix(0.866025,0.500001,0.500001,-0.866025,248.202,146.935)"
   id="g315"
   style="fill:#8088b3;fill-opacity:1;stroke:none">
                        <path
   d="m -6.439,-18.634 h 79.096 l 1.558,-2.698 h -85.327 z"
   style="fill:#8088b3;fill-opacity:1;fill-rule:nonzero;stroke:none"
   id="path313"
   inkscape:connector-curvature="0" />
                    </g>
                    <g
   transform="matrix(0.866029,0.499995,0.499995,-0.866029,252.457,148.075)"
   id="g319"
   style="fill:#8088b3;fill-opacity:1;stroke:none">
                        <path
   d="m -6.021,-17.076 h 72.864 l 1.558,-2.698 h -79.095 z"
   style="fill:#8088b3;fill-opacity:1;fill-rule:nonzero;stroke:none"
   id="path317"
   inkscape:connector-curvature="0" />
                    </g>
                    <g
   transform="matrix(0.866026,0.499998,0.499998,-0.866026,256.714,149.215)"
   id="g323"
   style="fill:#8088b3;fill-opacity:1;stroke:none">
                        <path
   d="M -5.604,-15.518 H 61.03 l 1.558,-2.698 h -72.865 z"
   style="fill:#8088b3;fill-opacity:1;fill-rule:nonzero;stroke:none"
   id="path321"
   inkscape:connector-curvature="0" />
                    </g>
                    <g
   transform="matrix(0.866027,0.499998,0.499998,-0.866027,260.97,150.356)"
   id="g327"
   style="fill:#8088b3;fill-opacity:1;stroke:none">
                        <path
   d="m -5.187,-13.96 h 60.403 l 1.558,-2.699 -66.634,10e-4 z"
   style="fill:#8088b3;fill-opacity:1;fill-rule:nonzero;stroke:none"
   id="path325"
   inkscape:connector-curvature="0" />
                    </g>
                    <g
   transform="translate(301.808,159.853)"
   id="g331"
   style="fill:#8088b3;fill-opacity:1;stroke:none">
                        <path
   d="M 0,30.201 -52.31,0 H 0 Z"
   style="fill:#8088b3;fill-opacity:1;fill-rule:nonzero;stroke:none"
   id="path329"
   inkscape:connector-curvature="0" />
                    </g>
                </g>
            </g>
            <g
   transform="translate(2872.56,1000.89)"
   id="g339"
   style="fill:#8088b3;fill-opacity:1;stroke:none">
                <path
   d="m 0,227.783 c -62.801,0 -113.89,-51.091 -113.89,-113.891 C -113.89,51.091 -62.801,0 0,0 c 42.786,0 81.58,23.631 101.238,61.668 2.043,3.953 0.497,8.814 -3.456,10.855 -3.949,2.043 -8.813,0.499 -10.853,-3.456 C 70.043,36.402 36.738,16.109 0,16.109 c -53.917,0 -97.781,43.866 -97.781,97.783 0,53.916 43.864,97.782 97.781,97.782 53.917,0 97.782,-43.866 97.782,-97.782 0,-4.45 3.606,-8.055 8.055,-8.055 4.449,0 8.054,3.605 8.054,8.055 0,62.8 -51.09,113.891 -113.891,113.891"
   style="fill:#8088b3;fill-opacity:1;fill-rule:nonzero;stroke:none"
   id="path337"
   inkscape:connector-curvature="0" />
            </g>
        </g>
    </g>
</svg>