<?xml version="1.0" encoding="UTF-8" standalone="no"?>
<svg
   xmlns:dc="http://purl.org/dc/elements/1.1/"
   xmlns:cc="http://creativecommons.org/ns#"
   xmlns:rdf="http://www.w3.org/1999/02/22-rdf-syntax-ns#"
   xmlns:svg="http://www.w3.org/2000/svg"
   xmlns="http://www.w3.org/2000/svg"
   xmlns:sodipodi="http://sodipodi.sourceforge.net/DTD/sodipodi-0.dtd"
   xmlns:inkscape="http://www.inkscape.org/namespaces/inkscape"
   width="300"
   height="104.5261"
   version="1.1"
   id="svg13"
   sodipodi:docname="don.svg"
   inkscape:version="0.92.3 (2405546, 2018-03-11)">
  <metadata
     id="metadata19">
    <rdf:RDF>
      <cc:Work
         rdf:about="">
        <dc:format>image/svg+xml</dc:format>
        <dc:type
           rdf:resource="http://purl.org/dc/dcmitype/StillImage" />
        <dc:title></dc:title>
      </cc:Work>
    </rdf:RDF>
  </metadata>
  <defs
     id="defs17" />
  <sodipodi:namedview
     pagecolor="#ffffff"
     bordercolor="#666666"
     borderopacity="1"
     objecttolerance="10"
     gridtolerance="10"
     guidetolerance="10"
     inkscape:pageopacity="0"
     inkscape:pageshadow="2"
     inkscape:window-width="1920"
     inkscape:window-height="1026"
     id="namedview15"
     showgrid="false"
     fit-margin-top="0"
     fit-margin-left="0"
     fit-margin-right="0"
     fit-margin-bottom="0"
     inkscape:zoom="1.0745401"
     inkscape:cx="289.80772"
     inkscape:cy="-241.7379"
     inkscape:window-x="0"
     inkscape:window-y="0"
     inkscape:window-maximized="1"
     inkscape:current-layer="svg13"
     showguides="true"
     inkscape:guide-bbox="true" />
  <g
     id="g830"
     transform="matrix(0.62389822,0,0,0.62389822,-3.1828558,-2.8709067)">
    <path
       id="rect923"
       d="M 5.1015625,4.6015625 V 172.13867 H 485.94922 V 4.6015625 Z M 377.87305,14.578125 A 73.851212,73.851212 0 0 1 450.25586,89.867188 73.851212,73.851212 0 0 1 374.9668,162.25 73.851212,73.851212 0 0 1 302.58203,86.960938 73.851212,73.851212 0 0 1 377.87305,14.578125 Z m -1.45313,11.408203 a 62.290903,62.290903 0 0 0 -62.28906,62.291016 62.290903,62.290903 0 0 0 62.28906,62.291016 62.290903,62.290903 0 0 0 62.29102,-62.291016 62.290903,62.290903 0 0 0 -62.29102,-62.291016 z m -5.67578,7.601563 h 12.55274 v 8.507812 c 5.39319,1.115833 9.48386,3.673474 12.27343,7.671875 2.78959,3.905414 4.1836,8.973058 4.1836,15.203125 v 2.789063 h -14.50586 v -3.765625 c 0,-5.765136 -2.55568,-8.646485 -7.66993,-8.646485 -5.11423,0 -7.67187,2.788024 -7.67187,8.367188 0,3.347498 0.92934,6.463135 2.78906,9.345703 1.85972,2.789581 5.30102,6.183239 10.32227,10.181641 6.23006,5.021246 10.60071,9.717545 13.11133,14.08789 2.51062,4.277352 3.76562,9.205992 3.76562,14.785152 0,6.32306 -1.44164,11.52972 -4.32422,15.6211 -2.78957,3.9984 -6.88026,6.55605 -12.27343,7.67187 v 9.76368 h -12.55274 v -9.76368 c -5.39319,-1.11582 -9.53149,-3.67347 -12.41406,-7.67187 -2.78959,-3.9984 -4.18555,-9.11173 -4.18555,-15.3418 v -6.41601 h 14.50586 v 7.39257 c 0,5.67215 2.65097,8.50782 7.95117,8.50782 5.30021,0 7.94922,-2.92899 7.94922,-8.78711 0,-3.62646 -0.92934,-6.88111 -2.78906,-9.76368 -1.85972,-2.97553 -5.29907,-6.416846 -10.32031,-10.322261 -6.23007,-4.928261 -10.60071,-9.531235 -13.11133,-13.808593 -2.51062,-4.277359 -3.76563,-9.112668 -3.76563,-14.50586 0,-6.044094 1.34831,-11.018414 4.04493,-14.923828 2.78957,-3.905415 6.83455,-6.463056 12.13476,-7.671875 z M 103.69727,47.615234 c 6.17892,0 10.90928,1.754655 14.18945,5.263672 3.28017,3.509018 4.91992,8.467229 4.91992,14.875 v 42.107424 c 0,6.40777 -1.63975,11.36598 -4.91992,14.875 -3.28017,3.50902 -8.01053,5.26367 -14.18945,5.26367 -6.178954,0 -10.909287,-1.75465 -14.189458,-5.26367 -3.280168,-3.50902 -4.919921,-8.46723 -4.919921,-14.875 V 67.753906 c 0,-6.407771 1.639753,-11.365982 4.919921,-14.875 3.28017,-3.509017 8.010504,-5.263672 14.189458,-5.263672 z m -64.677739,1.144532 h 19.222657 c 6.255205,0 10.946616,1.676751 14.074218,5.033203 3.127603,3.356451 4.691406,8.277664 4.691406,14.761719 v 40.505862 c 0,6.48405 -1.563803,11.40526 -4.691406,14.76172 -3.127602,3.35645 -7.819013,5.0332 -14.074218,5.0332 H 39.019531 Z m 92.298829,0 h 15.79102 l 12.24218,47.943359 h 0.23047 V 48.759766 h 11.21289 V 128.85547 H 157.86523 L 142.75977,70.384766 h -0.22852 v 58.470704 h -11.21289 z m 58.66992,0 h 17.04883 l 13.04492,80.095704 h -12.58789 l -2.28906,-15.9043 v 0.22852 h -14.30274 l -2.28711,15.67578 h -11.67187 z m 27.40625,0 h 38.9043 V 60.201172 H 243.13867 V 128.85547 H 230.55273 V 60.201172 h -13.1582 z m 44.88672,0 h 34.32617 v 11.441406 h -21.74023 v 21.167969 h 17.27734 V 92.8125 h -17.27734 v 24.60156 h 21.74023 v 11.44141 H 262.28125 Z M 103.69727,59.056641 c -4.348163,0 -6.521489,2.632958 -6.521489,7.896484 v 43.708985 c 0,5.26353 2.173326,7.89648 6.521489,7.89648 4.34813,0 6.52148,-2.63295 6.52148,-7.89648 V 66.953125 c 0,-5.263526 -2.17335,-7.896484 -6.52148,-7.896484 z m -52.091801,1.144531 v 57.212888 h 6.408203 c 2.059641,0 3.623444,-0.6115 4.691406,-1.83203 1.144245,-1.22053 1.716797,-3.20303 1.716797,-5.94922 V 67.982422 c 0,-2.746188 -0.572552,-4.728692 -1.716797,-5.949219 -1.067962,-1.220528 -2.631765,-1.832031 -4.691406,-1.832031 z m 146.277341,2.517578 -5.49219,39.5918 h 11.32813 l -5.60742,-39.5918 z"
       style="opacity:1;fill:#8088b3;fill-opacity:1;stroke:none;stroke-width:9.69629955;stroke-linecap:butt;stroke-linejoin:miter;stroke-miterlimit:4;stroke-dasharray:none;stroke-dashoffset:0;stroke-opacity:1;paint-order:normal"
       inkscape:connector-curvature="0" />
  </g>
  <text
     xml:space="preserve"
     style="font-style:normal;font-weight:normal;font-size:40px;line-height:0;font-family:sans-serif;letter-spacing:0px;word-spacing:0px;fill:#000000;fill-opacity:1;stroke:none"
     x="315.13223"
     y="53.290436"
     id="text901"><tspan
       sodipodi:role="line"
       id="tspan899"
       x="315.13223"
       y="63.681061" /></text>
  <g
     aria-label="DONATE   $"
     style="font-style:normal;font-weight:normal;font-size:114.42448425px;line-height:0;font-family:sans-serif;letter-spacing:0px;word-spacing:0px;fill:#000000;fill-opacity:1;stroke:none;stroke-width:2.86061192"
     id="text897"
     transform="translate(-5.1015625,-67.612565)">
    <g
       id="g978" />
    <g
       id="g921" />
  </g>
</svg>
