<?xml version="1.0" encoding="UTF-8" standalone="no"?>
<!-- Created with Inkscape (http://www.inkscape.org/) -->

<svg
   xmlns:dc="http://purl.org/dc/elements/1.1/"
   xmlns:cc="http://creativecommons.org/ns#"
   xmlns:rdf="http://www.w3.org/1999/02/22-rdf-syntax-ns#"
   xmlns:svg="http://www.w3.org/2000/svg"
   xmlns="http://www.w3.org/2000/svg"
   xmlns:sodipodi="http://sodipodi.sourceforge.net/DTD/sodipodi-0.dtd"
   xmlns:inkscape="http://www.inkscape.org/namespaces/inkscape"
   width="394.64227"
   height="100"
   viewBox="0 0 104.41576 26.458334"
   version="1.1"
   id="svg8"
   inkscape:version="0.92.3 (2405546, 2018-03-11)"
   sodipodi:docname="eth.svg">
  <defs
     id="defs2" />
  <sodipodi:namedview
     id="base"
     pagecolor="#ffffff"
     bordercolor="#666666"
     borderopacity="1.0"
     inkscape:pageopacity="0.0"
     inkscape:pageshadow="2"
     inkscape:zoom="2.7606118"
     inkscape:cx="195.26843"
     inkscape:cy="-14.698895"
     inkscape:document-units="mm"
     inkscape:current-layer="layer1"
     showgrid="false"
     inkscape:window-width="1920"
     inkscape:window-height="1026"
     inkscape:window-x="0"
     inkscape:window-y="0"
     inkscape:window-maximized="1"
     units="px"
     fit-margin-top="0"
     fit-margin-left="0"
     fit-margin-right="0"
     fit-margin-bottom="0" />
  <metadata
     id="metadata5">
    <rdf:RDF>
      <cc:Work
         rdf:about="">
        <dc:format>image/svg+xml</dc:format>
        <dc:type
           rdf:resource="http://purl.org/dc/dcmitype/StillImage" />
        <dc:title></dc:title>
      </cc:Work>
    </rdf:RDF>
  </metadata>
  <g
     inkscape:label="Layer 1"
     inkscape:groupmode="layer"
     id="layer1"
     transform="translate(3.228428e-7,-270.54166)">
    <g
       id="g997"
       style="opacity:1"
       transform="matrix(0.78928452,0,0,0.78928452,-19.874666,248.26559)">
      <path
         style="fill:#d1bdf6;fill-opacity:1;stroke:none;stroke-width:0.05225091"
         inkscape:connector-curvature="0"
         id="Выделение"
         d="m 78.775518,44.481055 c 0.120178,-0.376729 0.449881,-0.720539 0.731513,-0.990677 1.17669,-1.129143 3.022716,-1.388307 4.441328,-0.564832 1.262905,0.733603 1.931195,2.330913 1.933284,3.750049 0,0 0,4.963836 0,4.963836 0,0.14996 0.01098,0.332838 -0.06113,0.468168 -0.137942,0.258119 -0.490637,0.340676 -0.683966,0.09196 -0.106068,-0.135853 -0.09039,-0.343812 -0.09092,-0.50788 0,0 0,-5.016086 0,-5.016086 -0.01933,-1.647995 -1.074279,-3.375933 -2.873799,-3.39631 -1.69084,-0.01881 -2.90672,1.054945 -3.318979,2.664797 -0.102934,0.401808 -0.197509,1.103539 -0.179743,1.515275 0,0 0.05016,0.57476 0.05016,0.57476 0,0 0,3.605314 0,3.605314 -5.92e-4,0.164589 0.01097,0.365234 -0.07576,0.511535 -0.155185,0.261778 -0.529303,0.261778 -0.684487,0 -0.08674,-0.146301 -0.07524,-0.346946 -0.07576,-0.511535 0,0 0,-16.406786 0,-16.406786 5.93e-4,-0.175042 -0.01255,-0.414351 0.09667,-0.560132 0.150483,-0.200642 0.519896,-0.232515 0.670902,0.04337 0.07785,0.142645 0.06845,0.356874 0.06845,0.516763 0,0 0,6.270109 0,6.270109 0,0 0,1.881032 0,1.881032 0,0.333361 -0.03658,0.785331 0.05225,1.097269 z m -9.19616,-1.881032 c 0,0 0,-2.978302 0,-2.978302 0.0047,-0.27275 0.08256,-0.548112 0.418008,-0.539752 0.342243,0.0084 0.413826,0.31664 0.418007,0.592003 0,0 0,2.926051 0,2.926051 0,0 1.828782,0 1.828782,0 0.328657,5.93e-4 0.820339,0.04703 0.71427,0.522509 -0.06009,0.268048 -0.270138,0.308802 -0.505267,0.313505 0,0 -2.037785,0 -2.037785,0 0,0 0,8.255644 0,8.255644 0,0.14996 0.01098,0.332838 -0.06113,0.468169 -0.152573,0.285812 -0.529824,0.333361 -0.706433,0.04337 -0.07994,-0.131673 -0.06793,-0.31037 -0.06845,-0.459286 0,0 0,-8.307895 0,-8.307895 0,0 -1.881033,0 -1.881033,0 -0.294172,-5.92e-4 -0.690757,-0.05643 -0.602453,-0.470257 0.07681,-0.357397 0.41644,-0.365235 0.706955,-0.365757 0,0 1.776531,0 1.776531,0 z m -15.414019,5.329593 c 0.142122,0.779062 0.299397,1.365315 0.750323,2.037786 1.026208,1.530951 2.788109,2.134971 4.527019,1.52259 0.498996,-0.176085 0.975002,-0.478095 1.349641,-0.852211 0,0 0.55804,-0.652615 0.55804,-0.652615 0.174518,-0.173473 0.43943,-0.238263 0.630146,-0.04755 0.354261,0.354784 -0.260732,1.027253 -0.504744,1.283283 -0.828699,0.868933 -2.204989,1.34546 -3.391607,1.359047 -0.628578,0.0068 -1.363226,-0.138988 -1.933283,-0.406513 -1.637544,-0.768089 -2.683085,-2.405109 -2.82573,-4.191569 -0.01881,-0.234605 -0.05643,-0.309325 -0.04598,-0.574759 0.08047,-2.079587 1.259247,-4.069301 3.289718,-4.754834 0.436295,-0.146824 1.055991,-0.263866 1.515276,-0.234607 0.332316,0.02142 0.667767,0.04546 0.992768,0.12488 1.363748,0.332839 2.533646,1.349642 3.118857,2.617772 0.277452,0.600363 0.424799,1.174077 0.494816,1.828782 0.02665,0.248714 0.105547,0.554904 -0.08726,0.761818 -0.173473,0.186535 -0.471304,0.178175 -0.704865,0.178698 0,0 -7.733135,0 -7.733135,0 z m 37.725159,0 c 0.207958,0.824519 0.204301,1.157357 0.691279,1.933283 0.688668,1.097269 1.853341,1.871628 3.175288,1.871628 0,0 0.365757,-0.03867 0.365757,-0.03867 0.300965,-0.02404 0.598796,-0.05539 0.888265,-0.14787 0.542888,-0.172952 1.107197,-0.502654 1.510574,-0.906031 0,0 0.561698,-0.656795 0.561698,-0.656795 0.17504,-0.173473 0.430547,-0.239309 0.622308,-0.04755 0.357913,0.357919 -0.251327,1.027253 -0.502132,1.283283 -0.856391,0.87468 -2.180953,1.344939 -3.394218,1.359047 -0.617084,0.0068 -1.374199,-0.144214 -1.933285,-0.406513 -1.700766,-0.797872 -2.691444,-2.455793 -2.826251,-4.29607 -0.01306,-0.178699 -0.05121,-0.284768 -0.03814,-0.470258 0.058,-0.814592 0.215796,-1.615077 0.584688,-2.351292 0.729421,-1.455187 2.14281,-2.537304 3.794983,-2.626131 0,0 0.418008,0 0.418008,0 1.893049,0.10816 3.275609,0.999038 4.114236,2.730634 0.298874,0.617605 0.422184,1.155267 0.514144,1.828782 0.0308,0.228858 0.0643,0.587822 -0.10502,0.768087 -0.17191,0.183401 -0.477573,0.171906 -0.709044,0.172429 0,0 -7.733135,0 -7.733135,0 z m 23.356162,0 c 0.12801,1.565437 1.26029,3.137668 2.76929,3.630394 0.79422,0.259164 1.78385,0.192805 2.5603,-0.09928 0.62858,-0.236697 1.06017,-0.575806 1.50639,-1.075325 0,0 0.33807,-0.405988 0.33807,-0.405988 0.17974,-0.171906 0.44152,-0.231473 0.62962,-0.03449 0.34277,0.358441 -0.25969,1.013145 -0.5037,1.271788 -0.80414,0.854824 -2.22014,1.34964 -3.38116,1.363227 -0.55281,0.0063 -1.15579,-0.0951 -1.67203,-0.293128 -0.57214,-0.219455 -1.02098,-0.478097 -1.46302,-0.909167 -0.78638,-0.767565 -1.25925,-1.54088 -1.5205,-2.612023 -0.53766,-2.200808 0.3971,-4.684817 2.40876,-5.807166 0.60403,-0.337018 1.19707,-0.479664 1.88104,-0.519375 1.81206,-0.105546 3.40728,0.822431 4.29189,2.407722 0.40442,0.72472 0.67299,1.569095 0.67194,2.403542 0,0.159888 0.0162,0.370459 -0.0909,0.500565 -0.15466,0.188103 -0.47235,0.178175 -0.69285,0.178698 0,0 -7.73313,0 -7.73313,0 z m 28.00649,-3.500811 c 0.17504,-0.456674 0.60924,-0.896103 0.99276,-1.189231 1.57275,-1.202816 3.84044,-1.055991 5.11589,0.509968 0.25707,0.316119 0.55595,0.798918 0.63171,1.201772 0.19281,-0.193329 0.34068,-0.536094 0.51781,-0.783764 0.36994,-0.518852 0.80519,-0.946264 1.36323,-1.260814 0.50317,-0.2832 1.19915,-0.460854 1.77653,-0.463465 1.67516,-0.0078 2.94486,0.936858 3.51701,2.508043 0.3762,1.034568 0.2973,1.855952 0.2973,2.926051 0,0 0,3.814316 0,3.814316 -5.9e-4,0.148916 0.0115,0.327614 -0.0684,0.459285 -0.17661,0.289994 -0.55386,0.242445 -0.70644,-0.04337 -0.0721,-0.13533 -0.0611,-0.318208 -0.0611,-0.468168 0,0 0,-5.12059 0,-5.12059 -0.022,-1.84916 -1.48654,-3.584413 -3.44856,-3.187305 -0.36471,0.0742 -0.61813,0.17086 -0.94052,0.359485 -0.61917,0.361054 -1.12339,1.080027 -1.40294,1.73055 -0.64634,1.505349 -0.47809,3.204027 -0.47809,4.807084 0,0 0,1.515277 0,1.515277 -0.004,0.307759 -0.13272,0.672469 -0.52147,0.592525 -0.32865,-0.06793 -0.31402,-0.382477 -0.31454,-0.644776 0,0 0,-4.859334 0,-4.859334 -0.002,-1.043974 -0.32605,-2.11564 -1.10616,-2.842973 -1.23051,-1.147952 -3.33883,-0.850644 -4.35302,0.439431 -0.85378,1.085251 -0.86319,2.355993 -0.86319,3.657564 0,0 0,3.553062 0,3.553062 0,0.14996 0.011,0.332838 -0.0611,0.468168 -0.13794,0.258119 -0.49064,0.340676 -0.68396,0.09196 -0.10607,-0.135853 -0.0904,-0.343812 -0.0909,-0.50788 0,0 0,-8.412396 0,-8.412396 5.9e-4,-0.148916 -0.0115,-0.328136 0.0685,-0.459286 0.17347,-0.284245 0.55595,-0.233562 0.70643,0.04389 0.0721,0.133762 0.0611,0.319253 0.0611,0.467646 6e-4,0.334405 -0.0366,0.784285 0.0523,1.097269 z m -36.62789,0.365756 c 0.33022,-0.8496 1.58895,-1.77235 2.45579,-2.035695 0.3344,-0.10189 1.03091,-0.27902 1.2676,0.05695 0.0627,0.08883 0.0893,0.199076 0.0664,0.305667 -0.0752,0.344334 -0.48697,0.346946 -0.7592,0.413828 0,0 -0.57476,0.185491 -0.57476,0.185491 -0.84385,0.341721 -1.44683,0.909689 -1.88835,1.700766 -0.59357,1.064351 -0.6197,2.264556 -0.6197,3.448562 0,0 0,2.821548 0,2.821548 0,0.129583 0.01,0.299399 -0.0533,0.414872 -0.13429,0.245058 -0.47601,0.267004 -0.64164,0.08517 -0.14944,-0.164068 -0.14056,-0.448835 -0.13533,-0.656795 0,0 0,-6.897119 0,-6.897119 0,0 0,-1.61978 0,-1.61978 0.0617,-0.241399 0.25446,-0.437339 0.51571,-0.383521 0.32866,0.06793 0.31403,0.382477 0.31455,0.644777 6e-4,0.386133 -0.0423,1.181392 0.0523,1.515276 z m 29.41726,5.590847 c -0.85169,1.96568 -3.30278,2.861783 -5.17284,1.753019 -0.69703,-0.413305 -1.27545,-1.15579 -1.56439,-1.909772 -0.45302,-1.184005 -0.3689,-1.963067 -0.3689,-3.187304 0,0 0,-3.657565 0,-3.657565 0,-0.148392 -0.011,-0.333883 0.0611,-0.467645 0.15362,-0.283723 0.50108,-0.316641 0.69128,-0.04912 0.0972,0.136375 0.0831,0.305667 0.0836,0.464511 0,0 0,5.016086 0,5.016086 0.0115,0.96403 0.38248,2.04667 1.09727,2.712346 1.07428,0.999559 2.93337,0.949922 3.95592,-0.108682 1.40136,-1.449963 1.21692,-3.930314 1.21692,-5.790968 0,0 0,-1.724281 0,-1.724281 0.002,-0.315073 0.0685,-0.842806 0.52146,-0.749277 0.36628,0.07576 0.36628,0.510491 0.36106,0.801528 0,0 0,6.89712 0,6.89712 0,0 0,1.619779 0,1.619779 -0.0622,0.242444 -0.25446,0.436817 -0.51676,0.383522 -0.31978,-0.06531 -0.31299,-0.332839 -0.31351,-0.592525 -5.9e-4,-0.372028 0.0408,-1.083685 -0.0523,-1.410776 z M 61.846223,47.093601 c -0.245057,-1.361136 -0.654704,-2.462585 -1.881033,-3.255231 -0.563787,-0.364189 -1.103017,-0.55804 -1.776531,-0.559085 -0.529302,-0.001 -0.839672,-0.01672 -1.358524,0.160932 -1.524159,0.521987 -2.537304,2.081677 -2.664796,3.653384 0,0 7.680884,0 7.680884,0 z m 37.725158,0 c 0,0 -0.129581,-0.731513 -0.129581,-0.731513 -0.18967,-0.742485 -0.620219,-1.556032 -1.177213,-2.085333 -1.40973,-1.339191 -3.659655,-1.363227 -5.065726,0 -0.768611,0.745098 -1.169898,1.773918 -1.308363,2.816846 0,0 7.680883,0 7.680883,0 z m 23.303909,0 c -0.005,-0.54132 -0.16668,-1.083684 -0.40547,-1.567527 -0.61081,-1.240437 -1.75929,-2.2447 -3.19984,-2.246789 -0.65837,-0.001 -0.93059,-0.0256 -1.56753,0.232516 -1.34128,0.543932 -2.42392,2.132882 -2.45579,3.5818 0,0 7.62863,0 7.62863,0 z" />
      <path
         style="fill:#d1bdf6;fill-opacity:1;stroke:none;stroke-width:0.03957723"
         inkscape:connector-curvature="0"
         id="Выделение #3"
         d="m 35.431117,40.610799 c 0,0 0.03958,1.029009 0.03958,1.029009 0,0 0,2.176748 0,2.176748 0,0 0,7.559252 0,7.559252 0,0 -3.245334,-1.921474 -3.245334,-1.921474 0,0 -3.799415,-2.244031 -3.799415,-2.244031 0,0 -2.137171,-1.262514 -2.137171,-1.262514 -0.267938,-0.153955 -0.933628,-0.500652 -1.108163,-0.706452 0,0 1.780977,-0.797085 1.780977,-0.797085 0,0 4.076454,-1.842321 4.076454,-1.842321 0,0 2.809984,-1.266869 2.809984,-1.266869 0,0 1.58309,-0.724263 1.58309,-0.724263 z" />
      <path
         style="fill:#c2faf7;fill-opacity:0.97872338;stroke:none;stroke-width:0.03957723"
         inkscape:connector-curvature="0"
         id="Выделение #2"
         d="m 35.431117,28.223123 c 0.0752,0.189179 0.03958,0.865159 0.03958,1.108163 0,0 0,2.493367 0,2.493367 0,0 0,8.469528 0,8.469528 -7.41e-4,0.418332 -0.122294,0.393794 -0.633237,0.616614 0,0 -1.741398,0.78086 -1.741398,0.78086 0,0 -5.382505,2.435978 -5.382505,2.435978 0,0 -1.622666,0.730199 -1.622666,0.730199 -0.252106,0.115567 -0.657378,0.324138 -0.910277,0.383505 0,0 1.258557,-2.097594 1.258557,-2.097594 0,0 3.007869,-4.986733 3.007869,-4.986733 0,0 3.817622,-6.332357 3.817622,-6.332357 0,0 1.23837,-2.058018 1.23837,-2.058018 0,0 0.928087,-1.543512 0.928087,-1.543512 z M 25.180612,47.220199 c 0.205407,0.04907 0.700913,0.358173 0.910277,0.482841 0,0 1.662243,0.989431 1.662243,0.989431 0,0 2.216326,1.29853 2.216326,1.29853 0,0 3.166179,1.870816 3.166179,1.870816 0,0 1.7414,1.025842 1.7414,1.025842 0.586138,0.351842 0.592865,0.293663 0.593658,0.664898 0,0 0,5.738698 0,5.738698 0,0 0,1.662245 0,1.662245 0,0.203823 0.02929,0.618196 -0.03958,0.791544 0,0 -0.893653,-1.306049 -0.893653,-1.306049 0,0 -1.661848,-2.335056 -1.661848,-2.335056 0,0 -2.058414,-2.889138 -2.058414,-2.889138 0,0 -3.204964,-4.551383 -3.204964,-4.551383 0,0 -1.464358,-2.058017 -1.464358,-2.058017 0,0 -0.967268,-1.385202 -0.967268,-1.385202 z" />
      <path
         style="fill:#9ab6f3;fill-opacity:1;stroke:none;stroke-width:0.03957723"
         inkscape:connector-curvature="0"
         id="Выделение #3-3"
         d="m 35.431117,40.610799 c 0,0 -0.03958,1.029009 -0.03958,1.029009 0,0 0,2.176748 0,2.176748 0,0 0,7.559253 0,7.559253 0,0 3.245334,-1.921475 3.245334,-1.921475 0,0 3.799414,-2.244031 3.799414,-2.244031 0,0 2.137171,-1.262514 2.137171,-1.262514 0.267938,-0.153955 0.933628,-0.50065 1.108163,-0.706452 0,0 -1.780977,-0.797085 -1.780977,-0.797085 0,0 -4.076454,-1.842321 -4.076454,-1.842321 0,0 -2.809983,-1.266869 -2.809983,-1.266869 0,0 -1.583091,-0.724263 -1.583091,-0.724263 z" />
      <path
         style="fill:#f1d3ca;fill-opacity:1;stroke:none;stroke-width:0.03957723"
         inkscape:connector-curvature="0"
         id="Выделение #2-6"
         d="m 35.431117,28.223123 c -0.0752,0.189179 -0.03958,0.865159 -0.03958,1.108163 0,0 0,2.493367 0,2.493367 0,0 0,8.469528 0,8.469528 7.41e-4,0.418332 0.122294,0.393794 0.633237,0.616614 0,0 1.741396,0.78086 1.741396,0.78086 0,0 5.382507,2.435978 5.382507,2.435978 0,0 1.622666,0.730199 1.622666,0.730199 0.252108,0.115567 0.657378,0.324138 0.910276,0.383505 0,0 -1.258557,-2.097594 -1.258557,-2.097594 0,0 -3.00787,-4.986733 -3.00787,-4.986733 0,0 -3.81762,-6.332357 -3.81762,-6.332357 0,0 -1.238371,-2.058018 -1.238371,-2.058018 0,0 -0.928087,-1.543512 -0.928087,-1.543512 z m 10.250505,18.997076 c -0.205406,0.04907 -0.700912,0.358173 -0.910276,0.482841 0,0 -1.662245,0.989431 -1.662245,0.989431 0,0 -2.216324,1.29853 -2.216324,1.29853 0,0 -3.166178,1.870816 -3.166178,1.870816 0,0 -1.741401,1.025842 -1.741401,1.025842 -0.586138,0.351842 -0.592866,0.293663 -0.593658,0.664898 0,0 0,5.738699 0,5.738699 0,0 0,1.662244 0,1.662244 0,0.203824 -0.02929,0.618196 0.03958,0.791544 0,0 0.893654,-1.306049 0.893654,-1.306049 0,0 1.661848,-2.335054 1.661848,-2.335054 0,0 2.058412,-2.88914 2.058412,-2.88914 0,0 3.204965,-4.551383 3.204965,-4.551383 0,0 1.464357,-2.058017 1.464357,-2.058017 0,0 0.967269,-1.385202 0.967269,-1.385202 z" />
    </g>
  </g>
</svg>
