<?xml version="1.0" encoding="UTF-8" standalone="no"?>
<svg
   xmlns:dc="http://purl.org/dc/elements/1.1/"
   xmlns:cc="http://creativecommons.org/ns#"
   xmlns:rdf="http://www.w3.org/1999/02/22-rdf-syntax-ns#"
   xmlns:svg="http://www.w3.org/2000/svg"
   xmlns="http://www.w3.org/2000/svg"
   xmlns:sodipodi="http://sodipodi.sourceforge.net/DTD/sodipodi-0.dtd"
   xmlns:inkscape="http://www.inkscape.org/namespaces/inkscape"
   width="300"
   height="106.09756"
   version="1.1"
   id="svg13"
   sodipodi:docname="lpa.svg"
   inkscape:version="0.92.3 (2405546, 2018-03-11)">
  <metadata
     id="metadata19">
    <rdf:RDF>
      <cc:Work
         rdf:about="">
        <dc:format>image/svg+xml</dc:format>
        <dc:type
           rdf:resource="http://purl.org/dc/dcmitype/StillImage" />
        <dc:title></dc:title>
      </cc:Work>
    </rdf:RDF>
  </metadata>
  <defs
     id="defs17" />
  <sodipodi:namedview
     pagecolor="#ffffff"
     bordercolor="#666666"
     borderopacity="1"
     objecttolerance="10"
     gridtolerance="10"
     guidetolerance="10"
     inkscape:pageopacity="0"
     inkscape:pageshadow="2"
     inkscape:window-width="1920"
     inkscape:window-height="1026"
     id="namedview15"
     showgrid="false"
     fit-margin-top="0"
     fit-margin-left="0"
     fit-margin-right="0"
     fit-margin-bottom="0"
     inkscape:zoom="0.32173363"
     inkscape:cx="137.81652"
     inkscape:cy="-706.977"
     inkscape:window-x="0"
     inkscape:window-y="0"
     inkscape:window-maximized="1"
     inkscape:current-layer="svg13" />
  <g
     id="g852"
     transform="matrix(0.85169412,0,0,0.85169412,103.29032,3.1154319)">
    <rect
       rx="17.182396"
       height="124.57238"
       width="352.23914"
       y="-3.6579235"
       x="-121.27631"
       id="back"
       style="fill:#f6c915;stroke-width:4.29559898" />
    <path
       style="fill:#1a171b;fill-opacity:1;stroke:none;stroke-width:0.29539114"
       inkscape:connector-curvature="0"
       id="Выделение"
       d="m -61.802426,68.397981 c 0,0 -1.367661,5.612432 -1.367661,5.612432 -0.156558,0.617368 -0.333792,1.66896 -0.865496,2.052969 -0.791649,0.593736 -3.030714,0.156557 -3.970057,0 -3.491524,-0.623276 -6.415896,-2.239065 -7.405457,-5.893054 -0.351515,-1.299721 -0.289483,-2.791446 -0.274713,-4.135476 0.0384,-3.166593 1.252458,-6.929876 1.943673,-10.043299 0,0 4.445637,-18.609641 4.445637,-18.609641 0,0 1.695545,-7.089388 1.695545,-7.089388 0.180189,-0.723708 0.443087,-2.286327 0.948206,-2.776676 0.522842,-0.508074 2.038199,-0.623277 2.782585,-0.744387 0,0 6.793996,-0.909805 6.793996,-0.909805 0,0 -2.696921,11.815647 -2.696921,11.815647 0,0 -4.811922,20.086597 -4.811922,20.086597 -0.705985,3.175455 -3.376321,8.891274 1.010238,10.382999 0.617367,0.209728 1.134302,0.218589 1.772347,0.251082 z m -3.249303,19.200425 c 0,0 1.958443,-8.861734 1.958443,-8.861734 0,0 2.729414,-11.520255 2.729414,-11.520255 0,0 4.064583,-16.837296 4.064583,-16.837296 0.301299,-1.214057 1.344029,-6.294784 1.860964,-6.962368 0.756201,-0.974791 4.351111,-1.47991 5.633109,-1.719176 1.311537,-0.245175 2.499009,-0.457857 3.840085,-0.47558 5.116175,-0.05908 10.282566,-0.513981 14.042895,3.8519 2.86234,3.326104 3.562417,7.872174 3.140008,12.099221 -0.632137,6.309555 -3.075022,12.155346 -8.61656,15.744348 -3.98778,2.581719 -7.712663,3.461984 -12.406428,3.456076 0,0 -4.135476,-0.295391 -4.135476,-0.295391 0,0 -2.65852,11.520255 -2.65852,11.520255 0,0 -9.452517,0 -9.452517,0 z M 21.793266,75.78276 c 0,0 5.35544,-22.745118 5.35544,-22.745118 0,0 1.47696,-6.203213 1.47696,-6.203213 0.15656,-0.635091 0.51989,-2.413346 0.84186,-2.862341 0.68531,-0.948205 4.13253,-1.175656 5.32295,-1.273135 0,0 -2.65852,11.520253 -2.65852,11.520253 1.5124,-0.522842 3.09275,-1.160887 4.72626,-1.07227 9.83948,0.537612 8.56339,13.195123 3.99664,18.795739 -2.0825,2.555134 -5.71286,4.616964 -9.01829,4.995064 0,0 -3.84008,0 -3.84008,0 -2.78554,0.01182 -3.66581,-0.487395 -6.20322,-1.154979 z m -2.36313,-32.008584 c 4.55493,0.112249 3.71602,5.79262 0,6.25343 -2.82394,0.351515 -4.09116,-1.996844 -3.12228,-4.079351 0.64395,-1.38243 1.70441,-1.91118 3.12228,-2.174079 z m 91.866644,32.599366 c 0,0 4.98325,-21.268162 4.98325,-21.268162 0,0 1.32926,-5.612432 1.32926,-5.612432 0.1536,-0.614414 0.44604,-2.044107 0.81823,-2.4931 0.53171,-0.643953 1.84029,-0.688262 2.61717,-0.756202 0,0 5.90782,-0.295391 5.90782,-0.295391 3.81645,0.0059 8.58997,1.089994 10.1969,5.021649 0.53466,1.311536 0.45195,2.747137 0.43718,4.135476 -0.0886,7.520658 -7.33456,10.557279 -13.88338,10.634081 -0.9039,0.0089 -3.33497,-0.153603 -4.00846,0.301299 -0.67054,0.454902 -0.86254,1.612836 -1.05159,2.357221 0,0 -1.25246,5.317041 -1.25246,5.317041 -0.16542,0.66463 -0.38401,1.943674 -0.9423,2.357221 -0.65281,0.481488 -4.16797,0.301299 -5.15162,0.301299 z m -124.655059,0 c 0,0 2.106139,-9.452516 2.106139,-9.452516 0,0 3.3201961,-13.883384 3.3201961,-13.883384 0,0 1.1106711,-4.726259 1.1106711,-4.726259 0,0 0.765063,-1.775299 0.765063,-1.775299 0,0 2.1504469,-0.292438 2.1504469,-0.292438 0,0 2.95391204,0 2.95391204,0 0,0 -1.66305204,7.680169 -1.66305204,7.680169 0,0 -4.2447709,18.01886 -4.2447709,18.01886 0,0 13.2925994,0 13.2925994,0 0,0 -0.88617,4.430867 -0.88617,4.430867 0,0 -18.9050346,0 -18.9050346,0 z m -37.514675,-7.904667 c 0,0 2.953911,0 2.953911,0 3.373367,-0.147695 5.984625,-1.157933 8.114395,-3.910979 2.256789,-2.912556 2.561042,-5.931454 2.519687,-9.452516 -0.02363,-1.987983 -0.576013,-4.188647 -2.374945,-5.314087 -1.54785,-0.971837 -5.296363,-0.617367 -7.077572,-0.298345 0,0 -4.135476,18.975927 -4.135476,18.975927 z M 120.45391,61.308594 c 2.94504,0 7.44976,-0.0768 9.73609,-2.12977 1.73985,-1.565573 2.74418,-5.393843 0.83005,-7.207544 -1.18452,-1.122487 -3.0957,-1.338122 -4.65832,-1.441509 -0.62032,-0.0384 -2.87711,0.07976 -3.32906,0.437179 -0.51398,0.410594 -0.75325,1.99389 -0.91571,2.661474 0,0 -1.66305,7.68017 -1.66305,7.68017 z m -56.715104,10.33869 c 0.009,0.892081 0.41651,3.361551 0,3.928702 -0.61145,0.838911 -3.40881,1.311537 -4.43086,1.382431 -3.8903,0.268806 -8.16757,0.268806 -10.4923,-3.538786 -1.45923,-2.389714 -1.50058,-5.302271 -1.05159,-7.975561 1.1284,-6.693563 5.6656,-11.978111 12.72545,-12.379843 4.14434,-0.236313 7.38183,1.760531 7.38478,6.176629 0,1.341076 -0.0532,2.327682 -0.71189,3.544694 -1.37948,2.534456 -3.99664,3.742605 -6.67289,4.392466 -1.98798,0.481488 -5.87533,0.827095 -7.97556,0.924574 0.13588,0.711893 0.29539,1.728038 0.63805,2.357222 1.98207,3.66285 7.49998,1.621697 10.58681,1.187472 z m 5.61244,4.726258 c 0,0 3.73079,-15.360339 3.73079,-15.360339 0.29243,-1.169749 1.10771,-5.379073 1.75167,-6.052565 0.56715,-0.590782 1.71327,-0.806418 2.4931,-0.998422 2.97163,-0.726662 3.78691,-0.66463 6.79399,-0.629183 0.77097,0.0089 2.76487,0.05612 3.21681,0.762109 0.48149,0.759155 -0.78869,3.444261 -1.14907,4.22114 -1.54194,-0.40764 -5.37021,-1.104763 -6.70538,0 -0.85959,0.646906 -1.10476,2.534456 -1.33221,3.583094 0,0 -2.04411,8.566343 -2.04411,8.566343 -0.25403,1.022054 -1.00728,5.113221 -1.65123,5.615386 -0.47558,0.369239 -1.56262,0.292437 -2.15045,0.292437 0,0 -2.95391,0 -2.95391,0 z m 32.197624,-1.772347 c -3.479708,2.930281 -9.493864,3.902118 -12.465494,-0.295391 -1.17862,-1.663052 -1.41788,-3.633311 -1.49468,-5.612431 -0.2629,-6.89443 3.50924,-12.506862 10.120096,-14.663217 2.351308,-0.768017 3.792818,-0.723708 6.203208,-0.697123 1.16384,0.01477 4.64946,0.313115 5.29932,1.332214 0.52284,0.81528 -0.69417,4.658318 -0.93048,5.757173 -0.64691,3.001174 -2.33655,8.362524 -2.15045,11.224864 0,0 0.49921,3.243395 0.49921,3.243395 0.29539,2.017521 -2.83576,1.739854 -4.19455,2.073646 0,0 -0.88618,-2.36313 -0.88618,-2.36313 z m 51.10267,0.295392 c -2.69397,1.122486 -3.76328,2.43993 -7.08939,2.212479 -9.89265,-0.676445 -8.11439,-14.036987 -3.16364,-19.318581 4.75285,-5.07482 12.0431,-5.337718 18.22859,-3.275888 0,0 -2.48719,10.338691 -2.48719,10.338691 -0.46672,2.100231 -1.03092,3.704205 -1.0575,5.907823 -0.0266,2.475377 0.12111,2.974588 0.88617,5.31704 0,0 -4.72626,0.886174 -4.72626,0.886174 0,0 -0.59078,-2.067738 -0.59078,-2.067738 z M 9.6822356,76.373542 c 0,0 1.5124004,-6.203214 1.5124004,-6.203214 0,0 2.66147,-11.224863 2.66147,-11.224863 0,0 1.60398,-5.015742 1.60398,-5.015742 0,0 2.19771,-0.301299 2.19771,-0.301299 0,0 2.65852,0 2.65852,0 0,0 -1.51241,6.793996 -1.51241,6.793996 0,0 -3.80463,15.951122 -3.80463,15.951122 0,0 -5.3170404,0 -5.3170404,0 z M 163.8764,53.628424 c 0,0 5.31704,0 5.31704,0 0,4.280218 0.65577,13.558454 2.06774,17.428078 0,0 2.58467,-5.02165 2.58467,-5.02165 1.32926,-2.676244 2.47834,-5.438151 3.42063,-8.270952 1.26723,-3.801684 1.0516,-4.100029 3.15183,-4.135476 0,0 3.84008,0 3.84008,0 -2.84757,8.524989 -7.11302,17.324691 -12.51572,24.517465 -3.96415,5.272732 -9.04783,8.108487 -15.54644,5.612432 0,0 1.77235,-4.135476 1.77235,-4.135476 3.25226,0.844819 5.05119,1.039777 7.68017,-1.488771 0.54943,-0.531704 1.34108,-1.284952 1.50059,-2.055923 0.12111,-0.593736 -0.27176,-1.742808 -0.42832,-2.363129 0,0 -1.07227,-4.726258 -1.07227,-4.726258 -0.86254,-4.232955 -1.77235,-11.08603 -1.77235,-15.36034 z M 27.701096,72.533457 c 1.7753,0.03249 3.26998,0.265852 5.02164,-0.32493 4.11185,-1.388338 6.66403,-6.085057 6.34501,-10.309151 -0.0945,-1.26132 -0.3781,-2.581718 -1.36176,-3.456076 -1.61579,-1.438555 -5.53563,-1.0191 -6.66698,0.859588 -0.44899,0.744386 -0.94229,3.385183 -1.16679,4.368835 0,0 -2.17112,8.861734 -2.17112,8.861734 z m 25.40363,-8.270952 c 1.923,0 2.53741,-0.08271 4.43087,-0.375146 1.66601,-0.259945 3.65399,-0.726663 4.72331,-2.085462 0.99251,-1.116578 1.2111,-2.856432 0,-3.819407 -0.80642,-0.561244 -2.06183,-0.570105 -2.95096,-0.460811 -3.29361,0.404686 -5.71582,3.633311 -6.20322,6.740826 z M 103.61661,57.7639 c -5.405658,-0.962975 -9.242788,2.259742 -10.586814,7.384779 -0.48149,1.828471 -0.56124,4.543116 0.543516,6.170721 1.84324,2.714644 6.542908,1.066362 7.260718,-1.175657 0,0 1.19633,-5.585847 1.19633,-5.585847 0,0 1.58625,-6.793996 1.58625,-6.793996 z m 48.44415,-0.209728 c -5.4736,0.900943 -8.06713,4.599241 -8.4157,9.957636 -0.17723,2.755999 1.07227,5.5504 4.28022,5.175253 3.90803,-0.454903 3.6983,-2.442885 4.33044,-5.470644 0,0 1.0959,-4.430867 1.0959,-4.430867 0.21268,-0.850727 1.14611,-3.931657 0.87731,-4.599241 -0.32789,-0.818233 -1.474,-0.679399 -2.16817,-0.632137 z" />
  </g>
</svg>
