<?xml version="1.0" encoding="UTF-8" standalone="no"?>
<!-- Created with Inkscape (http://www.inkscape.org/) -->

<svg
   xmlns:dc="http://purl.org/dc/elements/1.1/"
   xmlns:cc="http://creativecommons.org/ns#"
   xmlns:rdf="http://www.w3.org/1999/02/22-rdf-syntax-ns#"
   xmlns:svg="http://www.w3.org/2000/svg"
   xmlns="http://www.w3.org/2000/svg"
   xmlns:sodipodi="http://sodipodi.sourceforge.net/DTD/sodipodi-0.dtd"
   xmlns:inkscape="http://www.inkscape.org/namespaces/inkscape"
   width="108.29247mm"
   height="26.458334mm"
   viewBox="0 0 108.29247 26.458334"
   version="1.1"
   id="svg838"
   inkscape:version="0.92.3 (2405546, 2018-03-11)"
   sodipodi:docname="pay.svg">
  <defs
     id="defs832" />
  <sodipodi:namedview
     id="base"
     pagecolor="#ffffff"
     bordercolor="#666666"
     borderopacity="1.0"
     inkscape:pageopacity="0.0"
     inkscape:pageshadow="2"
     inkscape:zoom="2.3616262"
     inkscape:cx="102.35624"
     inkscape:cy="-4.0389696"
     inkscape:document-units="mm"
     inkscape:current-layer="layer1"
     showgrid="false"
     fit-margin-top="0"
     fit-margin-left="0"
     fit-margin-right="0"
     fit-margin-bottom="0"
     inkscape:window-width="1920"
     inkscape:window-height="1026"
     inkscape:window-x="0"
     inkscape:window-y="0"
     inkscape:window-maximized="1" />
  <metadata
     id="metadata835">
    <rdf:RDF>
      <cc:Work
         rdf:about="">
        <dc:format>image/svg+xml</dc:format>
        <dc:type
           rdf:resource="http://purl.org/dc/dcmitype/StillImage" />
        <dc:title></dc:title>
      </cc:Work>
    </rdf:RDF>
  </metadata>
  <g
     inkscape:label="Layer 1"
     inkscape:groupmode="layer"
     id="layer1"
     transform="translate(311.36036,-433.35085)">
    <g
       id="g818"
       transform="matrix(0.81858868,0,0,0.81858868,-56.484293,83.414589)">
      <path
         style="fill:#179bd7;fill-opacity:1;stroke:none;stroke-width:0.02655866"
         inkscape:connector-curvature="0"
         id="Выделение"
         d="m -217.22311,434.67378 c 0,0 1.22169,0 1.22169,0 0,0 2.36372,0 2.36372,0 0,0 2.62931,0 2.62931,0 0,0 1.88566,0 1.88566,0 0,0 1.11546,0.10039 1.11546,0.10039 1.32156,0.18352 2.69385,0.66158 3.60747,1.67665 0.90697,1.00764 1.1221,2.25244 1.11998,3.55886 0,0 -0.0242,0.31871 -0.0242,0.31871 0,0 -0.1551,1.24825 -0.1551,1.24825 -0.29826,1.7141 -0.99595,3.46591 -2.29069,4.67194 -1.07057,0.99754 -2.34884,1.5319 -3.77133,1.79802 -0.37315,0.0698 -1.03738,0.16519 -1.40761,0.16971 0,0 -0.58429,0.0265 -0.58429,0.0265 0,0 -2.49651,0 -2.49651,0 -0.45362,8e-4 -0.87909,0.26772 -1.01162,0.71709 0,0 -0.27036,1.62008 -0.27036,1.62008 0,0 -0.45097,2.84177 -0.45097,2.84177 -0.0414,0.25443 -0.13944,1.03765 -0.23239,1.2217 -0.0794,0.15749 -0.23053,0.28551 -0.39838,0.33942 -0.10517,0.0337 -0.18405,0.0321 -0.29214,0.0324 0,0 -3.69166,0 -3.69166,0 -0.43291,-0.005 -0.6815,-0.32215 -0.6297,-0.74364 0,0 0.19361,-1.2217 0.19361,-1.2217 0,0 0.3851,-2.44339 0.3851,-2.44339 0,0 1.20417,-7.6489 1.20417,-7.6489 0,0 0.47805,-3.02769 0.47805,-3.02769 0,0 0.22443,-1.4076 0.22443,-1.4076 0,0 0.31498,-1.9919 0.31498,-1.9919 0,0 0.20769,-1.19514 0.20769,-1.19514 0.12535,-0.35376 0.39492,-0.57128 0.7556,-0.66158 z m 33.96851,0.0117 c 0,0 1.2217,-0.0141 1.2217,-0.0141 0,0 2.3106,0 2.3106,0 0.0945,3e-4 0.17476,-0.003 0.26559,0.03 0.21725,0.0797 0.37076,0.29879 0.38803,0.52772 0,0 -0.1158,0.87644 -0.1158,0.87644 0,0 -0.74364,4.70088 -0.74364,4.70088 0,0 -1.72631,10.94217 -1.72631,10.94217 0,0 -0.28312,1.77943 -0.28312,1.77943 -0.0388,0.24088 -0.0882,0.69769 -0.18352,0.90299 -0.18034,0.38749 -0.53064,0.58376 -0.94761,0.58429 0,0 -3.00113,0 -3.00113,0 -0.34845,-0.004 -0.609,-0.22734 -0.63184,-0.58429 0,0 0.051,-0.42494 0.051,-0.42494 0,0 0.53117,-3.37295 0.53117,-3.37295 0,0 0.27754,-1.75287 0.27754,-1.75287 0,0 0.58429,-3.71821 0.58429,-3.71821 0,0 1.04482,-6.66622 1.04482,-6.66622 0,0 0.44273,-2.81522 0.44273,-2.81522 0.0637,-0.39652 0.0566,-0.85227 0.5155,-0.99515 z m -103.44596,0.96859 c 0.23026,0.0672 0.60049,0.33225 0.79676,0.48151 0.81588,0.62041 1.30907,1.39991 1.62884,2.36027 0.19574,0.58748 0.27648,1.21585 0.28338,1.83255 0,0 0.0173,0.25018 0.0173,0.25018 0,0 -0.0167,0.20131 -0.0167,0.20131 0,0 0,0.37182 0,0.37182 0,0 -0.0247,0.26559 -0.0247,0.26559 -0.0393,0.53595 -0.12403,1.06792 -0.23584,1.59352 -0.29692,1.39725 -0.80658,2.86355 -1.63681,4.03691 -0.30197,0.42654 -0.66954,0.89025 -1.05119,1.24587 -1.42248,1.32528 -3.13844,2.03918 -5.04614,2.32017 0,0 -1.19514,0.12801 -1.19514,0.12801 0,0 -0.29215,0.0242 -0.29215,0.0242 0,0 -0.58429,0.0266 -0.58429,0.0266 0,0 -1.08891,0 -1.08891,0 -0.54976,7.9e-4 -1.06659,0.36916 -1.22408,0.90299 0,0 -0.27435,1.59352 -0.27435,1.59352 0,0 -0.5001,3.16048 -0.5001,3.16048 0,0 -0.22522,1.43417 -0.22522,1.43417 -0.11128,0.75506 -0.15723,1.58847 -1.04296,1.82829 -0.14767,0.0401 -0.29878,0.0571 -0.4515,0.0574 0,0 -5.01958,0 -5.01958,0 -0.10252,-10e-4 -0.24753,-0.0183 -0.34527,-0.0473 -0.0701,-0.0207 -0.15324,-0.0598 -0.21246,-0.10252 -0.46956,-0.33862 -0.28392,-0.91388 -0.20583,-1.39061 0,0 0.26107,-1.6732 0.26107,-1.6732 0,0 0.11951,-0.61084 0.11951,-0.61084 0,0 0.42945,-2.70899 0.42945,-2.70899 0,0 0.49586,-3.16048 0.49586,-3.16048 0,0 0.45973,-2.89489 0.45973,-2.89489 0.0438,-0.29719 0.0845,-0.68575 0.20476,-0.95611 0.22256,-0.50063 0.74949,-0.82253 1.28969,-0.82332 0,0 3.37295,0 3.37295,0 0,0 0.37182,-0.0266 0.37182,-0.0266 0,0 0.21247,0 0.21247,0 0,0 0.26559,-0.0266 0.26559,-0.0266 0,0 0.21247,0 0.21247,0 0,0 1.38105,-0.17502 1.38105,-0.17502 1.7935,-0.30091 3.42845,-0.88759 4.88679,-1.9996 1.81475,-1.38397 2.91322,-3.34241 3.54346,-5.50083 0.14129,-0.48363 0.4013,-1.53828 0.44034,-2.01846 z m 72.42546,8.49877 c 0,0 1.35449,0 1.35449,0 0,0 0.39838,-0.0266 0.39838,-0.0266 0,0 0.39837,0 0.39837,0 0,0 0.29215,-0.0242 0.29215,-0.0242 0.75108,-0.055 1.55368,-0.21831 2.12469,-0.74842 0.20822,-0.19335 0.36227,-0.41245 0.49638,-0.66157 0.11128,-0.20637 0.21433,-0.51445 0.27037,-0.74365 0.20716,-0.84801 0.28577,-1.97357 -0.426,-2.61284 -0.56729,-0.50992 -1.60414,-0.57313 -2.33264,-0.5742 0,0 -0.39839,-0.0265 -0.39839,-0.0265 0,0 -0.61085,0 -0.61085,0 -0.12801,3e-4 -0.30489,0.012 -0.42493,0.0566 -0.32826,0.1219 -0.35961,0.39041 -0.40927,0.68707 0,0 -0.0799,0.50461 -0.0799,0.50461 0,0 -0.4159,2.62931 -0.4159,2.62931 0,0 -0.2369,1.5404 -0.2369,1.5404 z m 20.50327,9.24241 c -0.0595,0.1158 -0.16917,0.20105 -0.26558,0.28763 -0.18246,0.16387 -0.48417,0.39148 -0.69052,0.52666 -0.79942,0.52268 -1.58954,0.8273 -2.52308,1.01295 -0.25815,0.0513 -0.6706,0.11101 -0.92955,0.11155 0,0 -0.82332,0 -0.82332,0 -0.59863,-0.001 -1.51438,-0.1891 -2.07158,-0.41033 -1.9725,-0.78269 -3.05238,-2.61683 -3.27096,-4.66238 0,0 -0.0489,-0.61085 -0.0489,-0.61085 0,0 0,-0.45149 0,-0.45149 0,0 0.0242,-0.31871 0.0242,-0.31871 0.0361,-0.52294 0.11739,-1.03127 0.24487,-1.5404 0.61404,-2.45694 2.29122,-4.61218 4.64432,-5.61901 0.80658,-0.34527 1.65009,-0.53808 2.52307,-0.59811 0,0 0.3187,-0.0242 0.3187,-0.0242 0,0 0.92955,0.0265 0.92955,0.0265 0,0 0.66397,0.0722 0.66397,0.0722 1.03579,0.13625 2.13187,0.50462 2.7621,1.38849 0.0802,0.11234 0.12403,0.16573 0.18591,0.29215 0.18246,-0.43875 0.0112,-1.20338 0.55774,-1.40416 0.0908,-0.0332 0.17103,-0.0297 0.26558,-0.03 0,0 3.42607,0 3.42607,0 0.41617,5.3e-4 0.67963,0.23451 0.6629,0.66397 0,0 -0.17369,1.14202 -0.17369,1.14202 0,0 -0.34526,2.17781 -0.34526,2.17781 0,0 -1.05412,6.69278 -1.05412,6.69278 0,0 -0.23849,1.48728 -0.23849,1.48728 -0.0975,0.59678 -0.0977,1.13937 -0.79012,1.36113 -0.13944,0.0449 -0.20238,0.0462 -0.34526,0.0465 0,0 -2.65587,0 -2.65587,0 -0.36041,0 -0.78588,0.0728 -1.00339,-0.29214 -0.22894,-0.38404 0.0951,-1.01508 0.0207,-1.32794 z m -2.09813,-8.54445 c -0.42706,0.0614 -0.72266,0.0791 -1.14202,0.23292 -1.14972,0.42149 -1.93772,1.27508 -2.35204,2.41551 -0.0656,0.18034 -0.10703,0.36996 -0.14447,0.55773 -0.21779,1.08864 -0.0337,2.25855 0.90299,2.9682 0.23478,0.17794 0.51763,0.31286 0.79676,0.40475 0.23053,0.076 0.63502,0.15643 0.87643,0.15936 0.48709,0.006 0.79252,0.0114 1.27482,-0.10305 1.23658,-0.29374 2.14701,-1.07457 2.65959,-2.23412 0.58987,-1.33483 0.47274,-3.08585 -0.8536,-3.93865 -0.29294,-0.1883 -0.61882,-0.30515 -0.95611,-0.38111 -0.32535,-0.0733 -0.7301,-0.11234 -1.06235,-0.0815 z m 2.15125,8.5179 c 0,0 -0.0266,0 -0.0266,0 0,0 0.0266,0.0265 0.0266,0.0265 0,0 0,-0.0265 0,-0.0265 z" />
      <path
         style="fill:#222d65;fill-opacity:1;stroke:none;stroke-width:0.02655866"
         inkscape:connector-curvature="0"
         id="Выделение #2"
         d="m -302.76538,446.42271 0.38298,-2.41684 0.6151,-3.87756 0.42945,-2.73554 0.1814,-1.14203 c 0.0892,-0.57473 0.10251,-1.03738 0.64856,-1.38901 0.11128,-0.0717 0.19334,-0.10332 0.3187,-0.14209 0.13704,-0.0425 0.35961,-0.0622 0.50462,-0.0624 h 4.99302 2.7621 c 0.41721,0.0294 0.73638,0.0221 1.14203,0.0521 1.00896,0.0441 2.06759,0.2122 3.02768,0.53223 l 0.74365,0.28843 c 0.0693,0.0308 0.2981,0.0867 0.33263,0.14966 0.0343,0.0624 -0.0557,0.33855 -0.0693,0.41903 l -0.24025,1.05511 c -0.3851,1.54093 -0.96328,2.92756 -1.89363,4.22282 -0.25868,0.3604 -0.55401,0.69265 -0.86395,1.00897 -1.48968,1.51942 -3.33232,2.32919 -5.39247,2.74112 -0.58775,0.11739 -1.1824,0.19441 -1.77943,0.2361 l -0.29215,0.0242 -0.47805,0.0266 h -2.84178 c -0.45495,0 -1.08227,-0.0489 -1.48729,0.16785 -0.20476,0.10969 -0.41856,0.3041 -0.54817,0.49612 z"
         sodipodi:nodetypes="ccccccccccccccccccccccsccc" />
      <path
         style="fill:#253b80;fill-opacity:1;stroke:none;stroke-width:0.02655866"
         inkscape:connector-curvature="0"
         id="Выделение #1"
         d="m -304.29567,456.22374 c 0,0 -4.09004,0 -4.09004,0 0,0 -2.07157,0 -2.07157,0 -0.55401,-0.007 -0.9091,-0.38032 -0.903,-0.92955 0,0 0.10411,-0.74364 0.10411,-0.74364 0,0 0.17689,-1.11547 0.17689,-1.11547 0,0 0.6374,-4.03691 0.6374,-4.03691 0,0 1.88567,-11.9514 1.88567,-11.9514 0,0 0.81907,-5.2055 0.81907,-5.2055 0,0 0.39439,-2.49651 0.39439,-2.49651 0,0 0.11447,-0.71708 0.11447,-0.71708 0.026,-0.16865 0.0478,-0.3689 0.0964,-0.53118 0.12987,-0.4329 0.4677,-0.79304 0.89742,-0.93831 0.17847,-0.0603 0.23796,-0.0707 0.42493,-0.0709 0,0 3.90413,0 3.90413,0 0,0 2.92145,0 2.92145,0 0,0 2.04502,0 2.04502,0 0,0 2.07157,0 2.07157,0 0,0 0.50462,0.0265 0.50462,0.0265 0,0 0.26558,0.0242 0.26558,0.0242 0,0 1.40761,0.15962 1.40761,0.15962 1.57254,0.26027 3.0986,0.75002 4.3025,1.83919 0.27807,0.25151 0.51896,0.54418 0.74046,0.84536 0.32933,0.44725 0.52692,0.81402 0.73089,1.32793 0.21885,0.55189 0.38696,1.39831 0.38776,1.9919 0,0 0,0.63741 0,0.63741 0,0 -0.0242,0.26558 -0.0242,0.26558 0,0 -0.0335,0.47806 -0.0335,0.47806 0,0 -0.0752,0.61085 -0.0752,0.61085 -0.1721,-0.0324 -0.31844,-0.13279 -0.47806,-0.20105 0,0 -0.90299,-0.32906 -0.90299,-0.32906 -0.71523,-0.21247 -1.46339,-0.32986 -2.20437,-0.40396 0,0 -0.53118,-0.0486 -0.53118,-0.0486 0,0 -0.53117,-0.0266 -0.53117,-0.0266 0,0 -8.49877,0 -8.49877,0 -0.55454,8e-4 -0.99728,0.33411 -1.18903,0.84988 -0.0667,0.179 -0.0935,0.44379 -0.1235,0.63741 0,0 -0.15537,0.98267 -0.15537,0.98267 0,0 -0.39466,2.49651 -0.39466,2.49651 0,0 -0.59624,3.77133 -0.59624,3.77133 0,0 -0.45495,2.94801 -0.45495,2.94801 0,0 -0.10278,0.50461 -0.10278,0.50461 0,0 -0.87219,5.55076 -0.87219,5.55076 0,0 -0.37182,2.36372 -0.37182,2.36372 0,0 -0.22787,1.43417 -0.22787,1.43417 z m 34.87151,-21.51012 c 0,0 1.24826,0 1.24826,0 0,0 2.36372,0 2.36372,0 0,0 2.60275,0 2.60275,0 0,0 1.85911,0 1.85911,0 0,0 0.3187,0.0218 0.3187,0.0218 0,0 0.82332,0.0786 0.82332,0.0786 1.32209,0.18379 2.69251,0.66344 3.60746,1.67665 0.90592,1.00312 1.1221,2.25616 1.11998,3.55886 0,0 -0.0242,0.3187 -0.0242,0.3187 0,0 -0.1551,1.24826 -0.1551,1.24826 -0.29799,1.71277 -0.99755,3.46723 -2.29069,4.67193 -1.06872,0.99569 -2.35097,1.53217 -3.77133,1.79802 0,0 -1.16858,0.14555 -1.16858,0.14555 0,0 -0.26558,0.0242 -0.26558,0.0242 0,0 -0.55773,0.0266 -0.55773,0.0266 0,0 -2.49652,0 -2.49652,0 -0.13943,3e-4 -0.20981,0.002 -0.34526,0.0465 -0.72426,0.23744 -0.71868,0.9261 -0.82119,1.54704 0,0 -0.49559,3.13392 -0.49559,3.13392 0,0 -0.13279,0.84988 -0.13279,0.84988 0,0 -0.0614,0.37182 -0.0614,0.37182 -0.12191,0.52719 -0.5017,0.82252 -1.03871,0.82332 0,0 -3.45263,0 -3.45263,0 -0.43104,-0.005 -0.68123,-0.32402 -0.6297,-0.74364 0,0 0.19361,-1.2217 0.19361,-1.2217 0,0 0.3851,-2.4434 0.3851,-2.4434 0,0 1.90797,-12.11074 1.90797,-12.11074 0,0 0.41618,-2.62931 0.41618,-2.62931 0.0234,-0.13943 0.0616,-0.40847 0.10517,-0.53117 0.12536,-0.35377 0.39493,-0.57128 0.75559,-0.66158 z m 2.94802,9.47905 c 0,0 1.35449,0 1.35449,0 0,0 0.39838,-0.0266 0.39838,-0.0266 0,0 0.39838,0 0.39838,0 0,0 0.53117,-0.0457 0.53117,-0.0457 0.68203,-0.0839 1.36485,-0.24195 1.88566,-0.72691 0.19574,-0.18219 0.37156,-0.42494 0.49612,-0.66158 0.11101,-0.21061 0.21406,-0.51152 0.27063,-0.74364 0.21141,-0.86608 0.28657,-1.99269 -0.45256,-2.63409 -0.56437,-0.48974 -1.5898,-0.55188 -2.30609,-0.55295 0,0 -0.39837,-0.0266 -0.39837,-0.0266 0,0 -0.61085,0 -0.61085,0 -0.13837,3.1e-4 -0.32322,0.0133 -0.4515,0.0659 -0.33544,0.13757 -0.35828,0.47487 -0.40183,0.78401 0,0 -0.0606,0.37182 -0.0606,0.37182 0,0 -0.4252,2.70898 -0.4252,2.70898 0,0 -0.22787,1.48729 -0.22787,1.48729 z m 20.52984,9.24241 c -0.9524,0.9524 -2.13585,1.55315 -3.45263,1.81661 -0.3025,0.0606 -0.70274,0.12164 -1.00923,0.12217 0,0 -0.84987,0 -0.84987,0 -0.4762,-0.006 -1.24614,-0.15032 -1.69976,-0.30091 -0.49372,-0.16413 -0.95558,-0.3758 -1.38105,-0.67937 -1.38424,-0.98798 -2.11726,-2.671 -2.23332,-4.33145 0,0 -0.0242,-0.26558 -0.0242,-0.26558 0,0 0,-0.63741 0,-0.63741 10e-4,-0.68336 0.23238,-1.76111 0.44459,-2.41684 0.82544,-2.5499 2.87816,-4.6228 5.47799,-5.33431 0.49717,-0.13598 1.00099,-0.21007 1.51384,-0.2454 0,0 0.3187,-0.0242 0.3187,-0.0242 0,0 0.903,0.0266 0.903,0.0266 0,0 0.71708,0.0762 0.71708,0.0762 0.77605,0.10782 1.64345,0.36226 2.25749,0.86554 0.27275,0.22363 0.50886,0.53649 0.69052,0.83766 0,0 0.0725,-0.50461 0.0725,-0.50461 0.0529,-0.35961 0.0643,-0.80792 0.48522,-0.93487 0.0791,-0.0239 0.15723,-0.0212 0.23903,-0.0212 0,0 3.42607,0 3.42607,0 0.40714,5.2e-4 0.68574,0.23849 0.66157,0.66396 0,0 -0.11924,0.7702 -0.11924,0.7702 0,0 -0.23903,1.51385 -0.23903,1.51385 0,0 -0.89875,5.71011 -0.89875,5.71011 0,0 -0.39067,2.46995 -0.39067,2.46995 0,0 -0.14475,0.903 -0.14475,0.903 -0.0967,0.62333 -0.0895,1.25861 -0.80791,1.49392 -0.13572,0.0446 -0.20583,0.0462 -0.34527,0.0465 0,0 -3.05424,0 -3.05424,0 -0.42839,-8e-4 -0.70035,-0.21698 -0.69026,-0.66397 0,0 0.13253,-0.95611 0.13253,-0.95611 z m 15.40402,-4.38218 c 0.0741,-0.19361 0.30197,-0.48044 0.42494,-0.66396 0,0 0.90246,-1.32794 0.90246,-1.32794 0,0 1.31094,-1.93878 1.31094,-1.93878 0,0 1.3189,-1.93878 1.3189,-1.93878 0,0 0.7208,-1.06235 0.7208,-1.06235 0.24407,-0.3426 0.46238,-0.63183 0.92583,-0.6374 0,0 3.55886,0 3.55886,0 0.0967,3e-4 0.17184,-0.003 0.26559,0.0295 0.31366,0.10889 0.4584,0.45867 0.37368,0.76728 -0.0422,0.1543 -0.25762,0.44167 -0.35827,0.58429 0,0 -1.39699,2.01845 -1.39699,2.01845 0,0 -1.60202,2.31061 -1.60202,2.31061 0,0 -3.20403,4.6212 -3.20403,4.6212 0,0 -2.09814,3.02769 -2.09814,3.02769 0,0 -1.39698,2.01846 -1.39698,2.01846 0,0 -1.38106,1.9919 -1.38106,1.9919 -0.16466,0.23292 -0.37235,0.58987 -0.59544,0.754 -0.213,0.15669 -0.45893,0.20158 -0.71708,0.20211 0,0 -3.34639,0 -3.34639,0 -0.3782,-0.005 -0.68176,-0.20689 -0.69,-0.61085 -0.002,-0.0712 0,-0.14395 0.0207,-0.21247 0.0361,-0.12031 0.19706,-0.34261 0.27461,-0.4515 0,0 0.4515,-0.6374 0.4515,-0.6374 0,0 2.24262,-3.16048 2.24262,-3.16048 0,0 0.56144,-0.79676 0.56144,-0.79676 0.0709,-0.10119 0.18299,-0.21274 0.16228,-0.34527 0,0 -0.29587,-0.87643 -0.29587,-0.87643 0,0 -0.54949,-1.62008 -0.54949,-1.62008 0,0 -1.07988,-3.16048 -1.07988,-3.16048 0,0 -0.78746,-2.3106 -0.78746,-2.3106 0,0 -0.73541,-2.17781 -0.73541,-2.17781 0,0 -0.41272,-1.24826 -0.41272,-1.24826 -0.0521,-0.29241 0.12296,-0.60846 0.41272,-0.69584 0.0791,-0.0239 0.15722,-0.0212 0.23903,-0.0212 0,0 3.42606,0 3.42606,0 0.35589,5.2e-4 0.67459,0.13837 0.86767,0.45149 0.13784,0.22336 0.22203,0.59093 0.30144,0.84988 0,0 0.54818,1.83255 0.54818,1.83255 0,0 0.87431,2.92145 0.87431,2.92145 0,0 0.46265,1.51384 0.46265,1.51384 z m -17.55527,-4.16227 c -0.41883,0.0603 -0.67433,0.076 -1.08891,0.22336 -0.96063,0.34181 -1.82909,1.10989 -2.23438,2.05325 -0.55083,1.28278 -0.60288,3.0091 0.64086,3.91767 0.21672,0.15829 0.48921,0.29135 0.74364,0.37607 0.24434,0.0813 0.64697,0.16493 0.903,0.16811 0.49771,0.006 0.86395,0.007 1.35449,-0.11898 1.19434,-0.30595 2.08406,-1.09661 2.57991,-2.21818 0.60208,-1.36193 0.46265,-3.12967 -0.90672,-3.97238 -0.28922,-0.17794 -0.57499,-0.27355 -0.90299,-0.34738 -0.33251,-0.0749 -0.74948,-0.11288 -1.0889,-0.0815 z m 2.17781,8.51789 c 0,0 -0.0266,0 -0.0266,0 0,0 0.0266,0.0266 0.0266,0.0266 0,0 0,-0.0266 0,-0.0266 z" />
    </g>
  </g>
</svg>
